<svg width="24" height="24" viewBox="0 0 24 24" fill="none" xmlns="http://www.w3.org/2000/svg">
<path fill-rule="evenodd" clip-rule="evenodd" d="M5 13V16C5 16.8724 5.12762 17 6 17C6.22317 17 7 17.2232 7 17V12C7 11.7768 6.22317 12 6 12C5.12762 12 5 12.1276 5 13ZM3 12C3 7.02944 7.02944 3 12 3C16.9706 3 21 7.02944 21 12V16C21 17.4859 20.3904 18.6844 19 19C18.6844 20.3904 17.4859 21 16 21H13V19H16C16.6736 19 16.7729 18.5938 17 18C16.3643 17.6796 16 17.7605 16 17V12C16 10.9247 16.9247 10 18 10C18.5051 10 18.5778 9.78702 19 10C18.2625 6.65746 15.5643 5 12 5C8.43573 5 5.73752 6.65746 5 10C5.42218 9.78702 5.49485 10 6 10C7.07526 10 8 10.9247 8 12V17C8 18.0753 7.07526 19 6 19C4.27552 19 3 17.7245 3 16V12ZM19 13C19 12.1276 18.8724 12 18 12C17.7768 12 17 11.7768 17 12V17C17 17.2232 17.7768 17 18 17C18.8724 17 19 16.8724 19 16V13Z" fill="white"/>
</svg>
