<svg width="24" height="24" viewBox="0 0 24 24" fill="none" xmlns="http://www.w3.org/2000/svg">
<path fill-rule="evenodd" clip-rule="evenodd" d="M5 6C5 4.27754 6.21829 3 8 3C9.60793 3 11.1389 3.87577 12 5C12.8611 3.87577 14.3921 3 16 3C17.7817 3 19 4.27754 19 6C19 6.42612 19.1929 6.65622 19 7H20C21.0534 7 22 7.88985 22 9V10C22 10.8331 21.736 11.7408 21 12V17C21 18.7225 18.7817 20 17 20H7C5.21829 20 3 18.7225 3 17V12C2.26397 11.7408 2 10.8331 2 10V9C2 7.88985 2.94657 7 4 7H5C4.80713 6.65622 5 6.42612 5 6ZM8 7H11C11 5.66089 9.85972 4 8 4C6.86856 4 6 5.2732 6 6C6 6.55185 7.07664 7 8 7ZM11 9H4C3.81672 9 4.09435 8.92067 4 9C3.90717 9.07805 4 8.93256 4 9V10C4 10.0674 3.90717 10.9219 4 11C3.81672 11 4.09435 11.0793 4 11H11V9ZM13 11V9H20C19.9056 8.92067 20.1833 9 20 9C20 8.93256 20.0928 9.07805 20 9V10C20 10.0674 20.0928 10.9219 20 11C19.9056 11.0793 20.1833 11 20 11H13ZM11 12H5V17C5 17.7268 5.86856 19 7 19H11V12ZM13 19V12H19V17C19 17.7268 18.1314 19 17 19H13ZM13 7C13 5.66089 14.1403 4 16 4C17.1314 4 18 5.2732 18 6C18 6.55185 16.9234 7 16 7H13Z" fill="white"/>
</svg>
