<svg width="24" height="24" viewBox="0 0 24 24" fill="none" xmlns="http://www.w3.org/2000/svg">
<path fill-rule="evenodd" clip-rule="evenodd" d="M3 5C3 3.983 3.92439 3 5 3H19C20.0756 3 21 3.983 21 5V15C21 16.017 20.0756 17 19 17H12L8 20C7.76622 20.1656 7.26129 20.1235 7 20C6.73871 19.8765 7 19.2761 7 19V17H5C3.92439 17 3 16.017 3 15V5ZM5 4C4.7755 4 5 4.78918 5 5V15C4.7755 15 5 15.2108 5 15H8V18L12 15H19C19 15.2108 19.2245 15 19 15V5C19 4.78918 19.2245 4 19 4H5ZM8 7H16V9H8V7ZM8 11H14V12H8V11Z" fill="white"/>
</svg>
