<svg width="24" height="24" viewBox="0 0 24 24" fill="none" xmlns="http://www.w3.org/2000/svg">
<path fill-rule="evenodd" clip-rule="evenodd" d="M3 12C3 7.02944 7.02944 3 12 3C16.9706 3 21 7.02944 21 12C21 14.9114 19.1442 17.355 17 19C15.5042 20.108 14.0044 21 12 21C9.99557 21 8.49582 20.108 7 19C4.85584 17.355 3 14.9114 3 12ZM8 18C9.14124 18.7092 10.5575 19 12 19C13.4425 19 14.8588 18.7092 16 18C16 16.4784 14.5216 15 13 15H11C9.47835 15 8 16.4784 8 18ZM17 17C16.6475 14.981 15.1198 14 13 14H11C8.88017 14 7.35247 14.981 7 17C5.73082 15.663 5 13.989 5 12C5 7.88153 7.88153 5 12 5C16.1185 5 19 7.88153 19 12C19 13.989 18.2692 15.663 17 17ZM9 10C9 8.27552 10.2755 7 12 7C13.7245 7 15 8.27552 15 10C15 11.7245 13.7245 13 12 13C10.2755 13 9 11.7245 9 10ZM12 8C11.1276 8 10 9.12762 10 10C10 10.8724 11.1276 11 12 11C12.8724 11 14 10.8724 14 10C14 9.12762 12.8724 8 12 8Z" fill="white"/>
</svg>
