<svg width="24" height="24" viewBox="0 0 24 24" fill="none" xmlns="http://www.w3.org/2000/svg">
<path fill-rule="evenodd" clip-rule="evenodd" d="M11 3.00017C11.2889 2.75255 12.7111 2.75255 13 3.00017L21 10.0002V19.0002C21 20.0754 20.0753 21.0002 19 21.0002H14C13.574 21.0002 14 20.4262 14 20.0002V17.0002C14 16.1278 12.8724 15.0002 12 15.0002C11.1276 15.0002 10 16.1278 10 17.0002V20.0002C10 20.4262 10.426 21.0002 10 21.0002H5C3.92474 21.0002 3 20.0754 3 19.0002V10.0002L11 3.00017ZM5 11.0002V19.0002C4.77683 19.0002 5 19.2233 5 19.0002H9V17.0002C9 15.2757 10.2755 14.0002 12 14.0002C13.7245 14.0002 15 15.2757 15 17.0002V19.0002H19C19 19.2233 19.2232 19.0002 19 19.0002V11.0002L12 5.00017L5 11.0002Z" fill="white"/>
</svg>
