<svg width="24" height="24" viewBox="0 0 24 24" fill="none" xmlns="http://www.w3.org/2000/svg">
<path fill-rule="evenodd" clip-rule="evenodd" d="M6 6C4.00187 6 3 7.02077 3 9V16C3 17.5571 3.42803 18 5 18C6.0781 18 7.51786 17.9552 8 17V16C8.13 15.7425 8.70931 16 9 16H15C15.2907 16 15.87 15.7425 16 16V17C16.4821 17.9552 17.9219 18 19 18C20.572 18 21 17.5571 21 16V9C21 7.02077 19.9981 6 18 6H6ZM1 9C1 6.1811 3.15417 4 6 4H18C20.8458 4 23 6.1811 23 9V16C23 18.3968 21.4197 20 19 20C17.3405 20 15.7421 19.4702 15 18L14 17H10L9 18C8.25786 19.4702 6.65947 20 5 20C2.58033 20 1 18.3968 1 16V9ZM7 10V8H8V10H10V11H8V13H7V11H5V10H7ZM16 13H14V11H16V13ZM19 10H17V8H19V10Z" fill="white"/>
</svg>
