<svg width="24" height="24" viewBox="0 0 24 24" fill="none" xmlns="http://www.w3.org/2000/svg">
<path fill-rule="evenodd" clip-rule="evenodd" d="M4 6C4 4.97324 4.97324 4 6 4H10C11.0268 4 12 4.97324 12 6V10C12 11.0268 11.0268 12 10 12H6C4.97324 12 4 11.0268 4 10V6ZM6 6C5.8042 6 6 5.8042 6 6V10C6 10.1958 5.8042 11 6 11H10C10.1958 11 11 10.1958 11 10V6C11 5.8042 10.1958 6 10 6H6ZM13 6C13 4.97324 13.9732 4 15 4H19C20.0268 4 21 4.97324 21 6V10C21 11.0268 20.0268 12 19 12H15C13.9732 12 13 11.0268 13 10V6ZM15 6C14.8042 6 14 5.8042 14 6V10C14 10.1958 14.8042 11 15 11H19C19.1958 11 19 10.1958 19 10V6C19 5.8042 19.1958 6 19 6H15ZM9 9H8V7H9V9ZM17 9H16V7H17V9ZM4 15C4 13.9732 4.97324 13 6 13H10C11.0268 13 12 13.9732 12 15V19C12 20.0268 11.0268 21 10 21H6C4.97324 21 4 20.0268 4 19V15ZM6 14C5.8042 14 6 14.8042 6 15V19C5.8042 19 6 19.1958 6 19H10C10.1958 19 11 19.1958 11 19V15C11 14.8042 10.1958 14 10 14H6ZM13 13H17V14H14V17H13V13ZM21 14H20V13H21V14ZM9 18H8V16H9V18ZM19 18H16V16H21V21H19V18ZM13 19H17V21H13V19Z" fill="white"/>
</svg>
