<svg width="16" height="16" viewBox="0 0 16 16" fill="none" xmlns="http://www.w3.org/2000/svg">
<path d="M7.99998 9C7.81109 9 8.12754 9.1248 7.99998 9C7.87198 8.87563 6.99998 8.18417 6.99998 8C6.99998 7.81583 7.87198 8.1248 7.99998 8C7.81109 8 8.12754 7.87563 7.99998 8C7.87198 7.87563 8.18887 8 7.99998 8C8.12754 8.1248 8.99998 7.81583 8.99998 8C8.99998 8.18417 8.12754 8.87563 7.99998 9C8.18887 9 7.87198 9.1248 7.99998 9ZM4.99998 9C4.81109 9 5.12798 9.1248 4.99998 9C4.87243 8.87563 4.99998 8.18417 4.99998 8C4.87243 8.1248 4.99998 7.81583 4.99998 8C4.81109 8 5.12798 7.87563 4.99998 8C5.18887 8 5.87198 7.87563 5.99998 8C5.99998 7.81583 6.12754 8.1248 5.99998 8C5.99998 8.18417 6.12754 8.87563 5.99998 9C5.87198 9.1248 5.18887 9 4.99998 9ZM11 9C10.8111 9 10.1275 9.1248 9.99998 9C9.87198 8.87563 9.99998 8.18417 9.99998 8C9.87198 8.1248 9.99998 7.81583 9.99998 8C10.1275 7.87563 10.8111 8 11 8C10.8724 7.87563 11.1889 8 11 8C11 7.81583 11.128 8.1248 11 8C11 8.18417 11.128 8.87563 11 9C11.1889 9 10.8724 9.1248 11 9ZM7.99998 11C7.81109 11 8.12754 11.1248 7.99998 11C7.87198 10.8756 6.99998 11.1842 6.99998 11C6.99998 10.8158 7.87198 10.1244 7.99998 10C7.81109 10 8.12754 9.8752 7.99998 10C7.87198 9.8752 8.18887 10 7.99998 10C8.12754 10.1244 8.99998 10.8158 8.99998 11C8.99998 11.1842 8.12754 10.8756 7.99998 11C8.18887 11 7.87198 11.1248 7.99998 11ZM4.99998 11C4.81109 11 5.12798 11.1248 4.99998 11C4.87243 10.8756 4.99998 11.1842 4.99998 11C4.99998 10.8158 4.87243 10.1244 4.99998 10C4.81109 10 5.12798 9.8752 4.99998 10C5.18887 10 5.87198 9.8752 5.99998 10C6.12754 10.1244 5.99998 10.8158 5.99998 11C5.99998 11.1842 6.12754 10.8756 5.99998 11C5.87198 11.1248 5.18887 11 4.99998 11ZM11 11C10.8111 11 10.1275 11.1248 9.99998 11C9.87198 10.8756 9.99998 11.1842 9.99998 11C9.99998 10.8158 9.87198 10.1244 9.99998 10C10.1275 9.8752 10.8111 10 11 10C10.8724 9.8752 11.1889 10 11 10C11.128 10.1244 11 10.8158 11 11C11.128 10.8756 11 11.1842 11 11C11.1889 11 10.8724 11.1248 11 11ZM2.99998 14C2.63332 14 2.26132 14.2544 1.99998 14C1.73909 13.7452 1.99998 13.3575 1.99998 13V4C1.99998 3.6425 1.73909 3.25437 1.99998 3C2.26132 2.7452 2.63332 2 2.99998 2H3.99998V1H4.99998V2H11V1H12V2H13C13.3667 2 13.7387 2.7452 14 3C14.2609 3.25437 14 3.6425 14 4V13C14 13.3575 14.2609 13.7452 14 14C13.7387 14.2544 13.3667 14 13 14H2.99998ZM2.99998 13H13V6H2.99998V13Z" fill="#D9D9D9"/>
</svg>
