<svg width="50" height="56" viewBox="0 0 50 56" fill="none" xmlns="http://www.w3.org/2000/svg">
<path d="M10.7092 8.8899V21.1799C10.7092 21.2699 10.7092 21.3499 10.7092 21.4299C10.6992 21.3499 10.6992 21.2699 10.6992 21.1799V8.3999C10.7092 8.5599 10.7192 8.7299 10.7192 8.8899H10.7092Z" fill="white"/>
<path d="M11.0297 29.1198L9.70969 21.5998C9.68969 21.4698 9.67969 21.3198 9.67969 21.1798V8.39982L11.6797 8.31982C11.6997 8.50982 11.6997 8.69982 11.6997 8.88982V21.1798C11.6997 21.2998 11.6997 21.4098 11.6897 21.5098L11.0197 29.1098L11.0297 29.1198Z" fill="black"/>
<path d="M29.7701 8.40015V17.9001C29.7701 17.9001 29.7601 17.9001 29.7501 17.9101V8.89015C29.7501 8.73015 29.7501 8.56015 29.7701 8.40015Z" fill="white"/>
<path d="M28.7501 20.3301V8.89006C28.7501 8.70006 28.7501 8.50006 28.7701 8.31006L30.7701 8.40006V18.9001H30.1801L28.7501 20.3301Z" fill="black"/>
<path d="M29.7701 8.40015V17.9001C29.7701 17.9001 29.7601 17.9001 29.7501 17.9101V8.89015C29.7501 8.73015 29.7501 8.56015 29.7701 8.40015Z" fill="white"/>
<path d="M28.7501 20.3301V8.89006C28.7501 8.70006 28.7501 8.50006 28.7701 8.31006L30.7701 8.40006V18.9001H30.1801L28.7501 20.3301Z" fill="black"/>
<path d="M20.2297 6.26998V21.17C20.2297 23.81 18.0897 25.94 15.4597 25.94C12.8297 25.94 10.8197 23.94 10.6997 21.41C10.6997 21.33 10.6997 21.25 10.6997 21.16V8.86998C10.6997 8.70998 10.6997 8.53998 10.6797 8.37998V6.24998C10.6797 3.60998 12.8197 1.47998 15.4497 1.47998C16.7697 1.47998 17.9597 2.00998 18.8197 2.87998C19.6897 3.74998 20.2197 4.93998 20.2197 6.25998L20.2297 6.26998Z" fill="white"/>
<path d="M15.4597 26.95C12.3797 26.95 9.84969 24.54 9.69969 21.47V21.34C9.69969 21.29 9.69969 21.23 9.69969 21.18V8.89C9.69969 8.76 9.69969 8.62 9.67969 8.48V6.27C9.67969 3.09 12.2697 0.5 15.4497 0.5C16.9997 0.5 18.4497 1.1 19.5297 2.19C20.6197 3.28 21.2197 4.73 21.2197 6.27V21.17C21.2197 24.35 18.6297 26.94 15.4497 26.94L15.4597 26.95ZM11.6997 21.43C11.8197 23.41 13.4597 24.95 15.4597 24.95C17.4597 24.95 19.2297 23.26 19.2297 21.18V6.28C19.2297 5.27 18.8397 4.32 18.1297 3.61C17.4197 2.9 16.4797 2.51 15.4697 2.51C13.3897 2.51 11.6997 4.2 11.6997 6.28V8.41C11.7097 8.52 11.7197 8.71 11.7197 8.9V21.19C11.7197 21.28 11.7197 21.36 11.7197 21.44L11.6997 21.43Z" fill="black"/>
<path d="M29.7705 6.27001V8.40001C29.7605 8.56001 29.7505 8.73001 29.7505 8.89001V17.91C28.5705 18.76 27.7905 20.16 27.7905 21.73V21.85C27.7905 22.78 28.0605 23.64 28.5205 24.38C27.6605 25.34 26.4005 25.95 25.0005 25.95C22.3605 25.95 20.2305 23.81 20.2305 21.18V6.28001C20.2305 3.64001 22.3705 1.51001 25.0005 1.51001C26.3105 1.51001 27.5005 2.04001 28.3705 2.91001C29.2405 3.78001 29.7705 4.97001 29.7705 6.29001V6.27001Z" fill="white"/>
<path d="M25.0005 26.95C21.8205 26.95 19.2305 24.36 19.2305 21.18V6.28001C19.2305 3.10001 21.8205 0.51001 25.0005 0.51001C26.5405 0.51001 27.9905 1.11001 29.0805 2.20001C30.1705 3.29001 30.7705 4.74001 30.7705 6.28001V8.41001C30.7505 8.63001 30.7505 8.77001 30.7505 8.90001V18.44L30.3305 18.74C29.3605 19.43 28.7905 20.56 28.7905 21.75V21.87C28.7905 22.58 28.9905 23.26 29.3705 23.86L29.7705 24.5L29.2705 25.06C28.1905 26.27 26.6405 26.96 25.0005 26.96V26.95ZM25.0005 2.50001C22.9205 2.50001 21.2305 4.19001 21.2305 6.27001V21.17C21.2305 23.25 22.9205 24.94 25.0005 24.94C25.8305 24.94 26.6405 24.66 27.2805 24.17C26.9605 23.44 26.7905 22.65 26.7905 21.85V21.73C26.7905 20.07 27.5105 18.5 28.7505 17.42V8.88001C28.7505 8.69001 28.7505 8.49001 28.7805 8.30001V6.26001C28.7805 5.25001 28.3805 4.30001 27.6705 3.59001C26.9605 2.88001 26.0105 2.49001 25.0105 2.49001L25.0005 2.50001Z" fill="black"/>
<path d="M39.2898 8.89012V17.0301H32.4998C31.4798 17.0301 30.5298 17.3501 29.7698 17.9001V8.40012C30.0198 6.00012 32.0498 4.12012 34.5198 4.12012C35.8298 4.12012 37.0198 4.65012 37.8898 5.52012C38.7598 6.39012 39.2898 7.58012 39.2898 8.90012V8.89012Z" fill="white"/>
<path d="M28.7698 19.8601V8.30012C29.0798 5.34012 31.5498 3.12012 34.5198 3.12012C36.0598 3.12012 37.5098 3.72012 38.5998 4.81012C39.6898 5.90012 40.2898 7.35012 40.2898 8.89012V18.0301H32.4998C31.7098 18.0301 30.9698 18.2701 30.3498 18.7101L28.7598 19.8601H28.7698ZM30.7698 8.46012V16.3001C31.3198 16.1301 31.8998 16.0401 32.4998 16.0401H38.2898V8.90012C38.2898 7.89012 37.8998 6.94012 37.1798 6.23012C36.4698 5.52012 35.5198 5.13012 34.5198 5.13012C32.5898 5.13012 30.9898 6.56012 30.7698 8.47012V8.46012Z" fill="black"/>
<path d="M29.7501 8.89015C29.7501 8.73015 29.7501 8.56015 29.7701 8.40015V17.9001C29.7701 17.9001 29.7601 17.9001 29.7501 17.9101V8.89015Z" fill="white"/>
<path d="M28.7501 20.3301V8.89006C28.7501 8.70006 28.7501 8.50006 28.7701 8.31006L30.7701 8.40006V18.9001H30.1801L28.7501 20.3301Z" fill="black"/>
<path d="M27.8597 35.18C31.4797 27.33 39.2897 28.86 39.2897 28.86V26.56H32.4897C30.8197 26.56 29.3497 25.69 28.5097 24.37C28.0497 23.64 27.7797 22.77 27.7797 21.84V21.72C27.7797 20.15 28.5497 18.75 29.7397 17.9C29.7397 17.9 29.7497 17.89 29.7597 17.89C30.5297 17.34 31.4697 17.02 32.4897 17.02H44.1197C46.7197 17.02 48.8297 19.13 48.8297 21.73V38.75C48.2097 40.34 47.4297 41.85 46.4997 43.26C46.1897 43.74 45.8497 44.21 45.5097 44.66C40.9897 50.63 33.8297 54.49 25.7697 54.49C12.0897 54.49 1.17969 43.4 1.17969 29.72V21.65C1.42969 24.05 3.45969 25.93 5.92969 25.93C8.39969 25.93 10.5597 23.93 10.6897 21.4C10.8097 23.93 12.8997 25.93 15.4497 25.93C17.9997 25.93 20.2197 23.79 20.2197 21.16C20.2197 23.8 22.3597 25.93 24.9897 25.93C26.3897 25.93 27.6497 25.33 28.5097 24.36C29.3497 25.67 30.8197 26.55 32.4897 26.55H39.2897" fill="white"/>
<path d="M25.7697 55.5C11.6597 55.5 0.179688 43.94 0.179688 29.73V21.66L2.17969 21.56C2.37969 23.49 3.98969 24.95 5.93969 24.95C7.88969 24.95 9.59969 23.38 9.69969 21.37H11.6997C11.7997 23.38 13.4497 24.95 15.4597 24.95C17.4697 24.95 19.2297 23.26 19.2297 21.18H21.2297C21.2297 23.26 22.9197 24.95 24.9997 24.95C25.8297 24.95 26.6397 24.67 27.2797 24.18C26.9597 23.45 26.7897 22.66 26.7897 21.86V21.74C26.7897 19.93 27.6497 18.23 29.0997 17.15L29.3397 16.91H29.4497C30.3497 16.33 31.3997 16.02 32.4997 16.02H44.1297C47.2797 16.02 49.8397 18.58 49.8397 21.73V38.94L49.7697 39.12C49.1197 40.77 48.3097 42.34 47.3497 43.81C47.0397 44.29 46.6897 44.79 46.3097 45.28C41.3897 51.77 33.9097 55.5 25.7697 55.5ZM2.17969 25.58V29.74C2.17969 42.84 12.7597 53.51 25.7697 53.51C33.2697 53.51 40.1797 50.07 44.7197 44.08C45.0597 43.63 45.3797 43.18 45.6697 42.73C46.5197 41.42 47.2497 40.03 47.8397 38.57V21.74C47.8397 19.69 46.1797 18.03 44.1297 18.03H32.4997C31.7097 18.03 30.9697 18.27 30.3497 18.71L30.2297 18.79C29.3197 19.49 28.7797 20.58 28.7797 21.73V21.85C28.7797 22.56 28.9797 23.24 29.3597 23.84C30.0497 24.92 31.2197 25.56 32.4997 25.56H40.2997V29.86L39.0997 29.84C38.8197 29.78 32.0097 28.58 28.7697 35.6L26.9497 34.76C29.9797 28.2 35.7897 27.66 38.2897 27.76V27.56H32.4897C30.9197 27.56 29.4597 26.93 28.3897 25.83C27.4197 26.55 26.2297 26.94 24.9897 26.94C23.0097 26.94 21.2597 25.94 20.2197 24.41C19.1797 25.94 17.4297 26.94 15.4497 26.94C13.4697 26.94 11.7297 25.95 10.6897 24.43C9.64969 25.95 7.89969 26.94 5.92969 26.94C4.49969 26.94 3.18969 26.43 2.17969 25.56V25.58Z" fill="black"/>
<path d="M10.7097 8.89013V21.1801C10.7097 21.2701 10.7097 21.3501 10.7097 21.4301C10.5797 23.9601 8.49969 25.9601 5.94969 25.9601C3.39969 25.9601 1.44969 24.0801 1.19969 21.6801C1.18969 21.5201 1.17969 21.3501 1.17969 21.1901V8.90013C1.17969 8.74013 1.17969 8.57013 1.19969 8.41013C1.44969 6.01013 3.47969 4.13013 5.94969 4.13013C7.26969 4.13013 8.45969 4.66013 9.31969 5.53013C10.0797 6.29013 10.5797 7.30013 10.6997 8.42013C10.7097 8.58013 10.7197 8.75013 10.7197 8.91013L10.7097 8.89013Z" fill="white"/>
<path d="M5.94016 26.9501C2.97016 26.9501 0.500157 24.7201 0.190157 21.7701C0.170157 21.5601 0.160156 21.3701 0.160156 21.1801V8.89011C0.160156 8.70011 0.160157 8.50011 0.190157 8.31011C0.500157 5.34011 2.97016 3.11011 5.94016 3.11011C7.49016 3.11011 8.94016 3.71011 10.0202 4.80011C10.9602 5.74011 11.5502 6.98011 11.6802 8.29011C11.7002 8.50011 11.7102 8.69011 11.7102 8.88011V21.1701C11.7102 21.2901 11.7102 21.4001 11.7002 21.5001C11.5502 24.5301 9.02016 26.9401 5.94016 26.9401V26.9501ZM5.94016 5.11011C4.00016 5.11011 2.38016 6.57011 2.18016 8.50011C2.17016 8.62011 2.16016 8.75011 2.16016 8.89011V21.1801C2.16016 21.3101 2.16016 21.4501 2.18016 21.5801C2.38016 23.5001 3.99016 24.9601 5.94016 24.9601C7.89016 24.9601 9.60016 23.3901 9.70016 21.3801C9.70016 21.2901 9.70016 21.2401 9.70016 21.1801V8.89011C9.70016 8.76011 9.70016 8.62011 9.68016 8.48011C9.59016 7.64011 9.21016 6.83011 8.59016 6.22011C7.88016 5.51011 6.94016 5.12011 5.93016 5.12011L5.94016 5.11011Z" fill="black"/>
</svg>
