<svg width="24" height="24" viewBox="0 0 24 24" fill="none" xmlns="http://www.w3.org/2000/svg">
<path d="M11.494 10.6426H12.3512M8.92261 10.6426H9.77975M14.0655 10.6426H14.9226" stroke="#717171"/>
<path d="M8.57143 15.4224H9.07143V14.9224H8.57143V15.4224ZM8.57143 17.9922H8.07143C8.07143 18.1815 8.1784 18.3546 8.34775 18.4393C8.51711 18.524 8.71978 18.5058 8.8713 18.3922L8.57143 17.9922ZM12 15.4224V14.9224H11.8334L11.7001 15.0223L12 15.4224ZM8.07143 15.4224V17.9922H9.07143V15.4224H8.07143ZM8.8713 18.3922L12.2999 15.8225L11.7001 15.0223L8.27155 17.5921L8.8713 18.3922ZM12 15.9224H17.1429V14.9224H12V15.9224ZM17.1429 15.9224C17.8927 15.9224 18.5 15.316 18.5 14.5658H17.5C17.5 14.7631 17.341 14.9224 17.1429 14.9224V15.9224ZM18.5 14.5658V6.85657H17.5V14.5658H18.5ZM18.5 6.85657C18.5 6.10641 17.8927 5.5 17.1429 5.5V6.5C17.341 6.5 17.5 6.65934 17.5 6.85657H18.5ZM17.1429 5.5H6.85714V6.5H17.1429V5.5ZM6.85714 5.5C6.10732 5.5 5.5 6.10641 5.5 6.85657H6.5C6.5 6.65934 6.65896 6.5 6.85714 6.5V5.5ZM5.5 6.85657V14.5658H6.5V6.85657H5.5ZM5.5 14.5658C5.5 15.316 6.10732 15.9224 6.85714 15.9224V14.9224C6.65897 14.9224 6.5 14.7631 6.5 14.5658H5.5ZM6.85714 15.9224H8.57143V14.9224H6.85714V15.9224Z" fill="#717171"/>
</svg>
