<svg width="16" height="16" viewBox="0 0 16 16" fill="none" xmlns="http://www.w3.org/2000/svg">
<circle cx="8" cy="8" r="8" fill="white"/>
<path d="M8.03412 15.3009H8.01297C8.00614 15.2968 7.27325 14.9502 6.3295 14.3101C5.45876 13.7191 4.225 12.7508 3.29284 11.4904C2.86362 10.9097 2.50673 10.2621 2.23172 9.56814C1.88302 9.45691 1.5698 9.23309 1.34939 8.93761C1.12078 8.63121 1 8.26682 1 7.88468C1 7.39813 1.20608 6.92728 1.56502 6.5929C1.38555 4.30484 1.91441 2.45282 1.91987 2.43371L1.92123 2.42825H1.92669L3.18503 2.63843C3.24371 2.64184 3.30581 2.64321 3.36859 2.64321C4.33964 2.64321 5.5502 2.19624 6.39501 1.8216C7.3101 1.41558 8.00478 1.00409 8.0116 1H8.03617C8.04299 1.00409 8.73767 1.41558 9.65344 1.82229C10.4982 2.19692 11.7081 2.64389 12.6799 2.64389C12.7426 2.64389 12.8041 2.64252 12.8634 2.63911L14.1265 2.42893L14.1279 2.43439C14.1334 2.45282 14.6677 4.32735 14.4793 6.63385C14.8151 6.96822 15 7.41246 15 7.88468C15 8.62917 14.5278 9.29723 13.8236 9.54767C13.5479 10.2505 13.1882 10.9043 12.7542 11.4904C11.8228 12.7508 10.5883 13.7191 9.71827 14.3101C8.77452 14.9502 8.04163 15.2968 8.03412 15.3003H8.03275L8.03412 15.3009Z" fill="white"/>
<path d="M13.648 3.80277L13.5531 3.26163L13.012 3.35376C11.6335 3.5885 9.15986 2.45368 8.32325 1.99647L8.0578 1.85181L7.79371 1.99647C6.95778 2.45368 4.48819 3.59055 3.10498 3.35376L2.56316 3.26163L2.46899 3.80277C2.27178 4.92804 2.22878 5.98916 2.33524 6.98478C2.03021 7.17516 1.82617 7.51295 1.82617 7.89782C1.82617 8.49082 2.30931 8.97395 2.90299 8.97395C3.49667 8.97395 3.97913 8.49082 3.97913 7.89782C3.97913 7.50681 3.76895 7.16493 3.45641 6.97659C3.35678 6.19252 3.36292 5.36272 3.47825 4.48721H3.49599C5.17468 4.48721 7.3133 3.48068 8.0578 3.10332C8.80161 3.48068 10.9416 4.48721 12.6196 4.48721H12.6373C12.7301 5.19144 12.752 5.86565 12.7056 6.51119H13.8193C13.8691 5.65411 13.8138 4.75198 13.648 3.80277ZM2.90299 8.46762C2.58909 8.46762 2.33387 8.2124 2.33387 7.8985C2.33387 7.5846 2.58909 7.32939 2.90299 7.32939C3.21689 7.32939 3.47211 7.58392 3.47211 7.8985C3.47211 8.21309 3.21689 8.46762 2.90299 8.46762Z" fill="#00479C"/>
<path d="M14.2433 7.89835C14.2433 7.30467 13.7609 6.82153 13.1672 6.82153C12.5735 6.82153 12.0911 7.30467 12.0911 7.89835C12.0911 8.14538 12.1757 8.37193 12.3156 8.55413L12.16 8.92604L11.986 9.30613C11.2381 10.8784 9.9272 12.2036 8.05881 13.2708C6.1911 12.2036 4.88022 10.8784 4.13163 9.30613H2.90332C3.72629 11.3642 5.35926 13.0634 7.7954 14.3866L8.05881 14.5299L8.32221 14.3866C10.7577 13.0634 12.3913 11.3642 13.2143 9.30613L13.3569 8.95743C13.8605 8.86735 14.244 8.42721 14.244 7.89903L14.2433 7.89835ZM13.1672 8.46747C12.8533 8.46747 12.5981 8.21225 12.5981 7.89835C12.5981 7.58445 12.8533 7.32923 13.1672 7.32923C13.4811 7.32923 13.7363 7.58377 13.7363 7.89835C13.7363 8.21293 13.4811 8.46747 13.1672 8.46747Z" fill="#717171"/>
<path d="M11.7856 5.93542H4.38916V5.975H11.7856V5.93542Z" fill="#00479C"/>
<path d="M11.6123 5.94981C11.6123 5.87543 11.673 5.8147 11.7474 5.8147C11.8218 5.8147 11.8832 5.87543 11.8832 5.94981C11.8832 6.02419 11.8225 6.08493 11.7474 6.08493C11.6724 6.08493 11.6123 6.02419 11.6123 5.94981Z" fill="#00479C"/>
<path d="M4.27295 5.94993C4.27295 5.87555 4.333 5.81482 4.40806 5.81482C4.48313 5.81482 4.54318 5.87555 4.54318 5.94993C4.54318 6.02431 4.48244 6.08505 4.40806 6.08505C4.33368 6.08505 4.27295 6.02431 4.27295 5.94993Z" fill="#00479C"/>
<path d="M4.39648 6.51575H5.21536L5.53131 7.74201L5.84521 6.51575H6.66408V8.53154H6.15365V6.99479L5.76059 8.53154H5.29861L4.90623 6.99479V8.53154H4.39648V6.51575Z" fill="#00479C"/>
<path d="M8.1476 6.51587H8.76926V7.71688C8.76926 7.8363 8.75084 7.9489 8.7133 8.05467C8.67646 8.16044 8.61845 8.25256 8.53929 8.3324C8.45945 8.41156 8.37688 8.46752 8.28954 8.49959C8.16807 8.54463 8.02272 8.56715 7.85349 8.56715C7.75522 8.56715 7.64809 8.56032 7.53276 8.54667C7.41676 8.53303 7.31917 8.50573 7.24138 8.46479C7.16359 8.42384 7.09262 8.36652 7.02779 8.29146C6.96296 8.21571 6.91929 8.1386 6.89541 8.05876C6.85651 7.93047 6.8374 7.81719 6.8374 7.71825V6.51723H7.45906V7.74691C7.45906 7.85677 7.48909 7.94276 7.5505 8.00417C7.61124 8.06627 7.69585 8.09698 7.80367 8.09698C7.91149 8.09698 7.99543 8.06627 8.05616 8.00554C8.11757 7.9448 8.1476 7.85882 8.1476 7.74691V6.51723V6.51587Z" fill="#00479C"/>
<path d="M8.98096 6.51587H9.60535V8.53166H8.98096V6.51587Z" fill="#00479C"/>
<path d="M9.83105 6.51587H10.4125L11.1713 7.6309V6.51587H11.7581V8.53166H11.1713L10.4165 7.42482V8.53166H9.83105V6.51587Z" fill="#00479C"/>
<path d="M11.2816 9.49156C11.1335 9.49156 11.0127 9.37146 11.0127 9.22338C11.0127 9.0753 11.1335 8.9552 11.2816 8.9552C11.4296 8.9552 11.5491 9.0753 11.5491 9.22338C11.5491 9.37146 11.429 9.49156 11.2816 9.49156ZM11.2816 8.99614C11.1553 8.99614 11.0536 9.0985 11.0536 9.22406C11.0536 9.34962 11.1553 9.4513 11.2816 9.4513C11.4078 9.4513 11.5088 9.34962 11.5088 9.22406C11.5088 9.0985 11.4064 8.99614 11.2816 8.99614Z" fill="#00479C"/>
<path d="M11.3954 9.36819H11.347L11.289 9.25287H11.2371V9.36819H11.1948V9.09387H11.3013C11.3183 9.09387 11.3334 9.09728 11.3463 9.10411C11.3593 9.11161 11.3695 9.12049 11.3763 9.13277C11.3832 9.14505 11.3866 9.1587 11.3866 9.1744C11.3866 9.1935 11.3811 9.2092 11.3709 9.22148C11.3606 9.23376 11.3477 9.24263 11.3313 9.24741L11.3941 9.36888L11.3954 9.36819ZM11.345 9.1744C11.345 9.16143 11.3409 9.15119 11.3327 9.143C11.3245 9.13482 11.3129 9.1314 11.2985 9.1314H11.2371V9.2167H11.2985C11.3129 9.2167 11.3245 9.21329 11.3327 9.2051C11.3409 9.1976 11.345 9.18736 11.345 9.17371V9.1744Z" fill="#00479C"/>
<path d="M6.66546 5.59594V5.26703H6.2915V5.14351H7.18339V5.26703H6.80739V5.59594H6.66477H6.66546ZM6.41502 5.05276V4.62012H7.06466V5.05276H6.41502ZM6.92204 4.74363H6.55764V4.92924H6.92204V4.74363Z" fill="#00479C"/>
<path d="M7.22559 4.877C7.22559 4.83879 7.23173 4.80399 7.24538 4.77123C7.25766 4.73984 7.2754 4.71186 7.29792 4.68798C7.31976 4.66478 7.34637 4.64635 7.37776 4.63339C7.40847 4.6211 7.44259 4.61496 7.47944 4.61496C7.51629 4.61496 7.55041 4.62179 7.5818 4.63339C7.6125 4.64635 7.63912 4.66478 7.66164 4.68661C7.68415 4.7105 7.7019 4.73779 7.71486 4.76987C7.72715 4.80262 7.73465 4.83879 7.73465 4.877C7.73465 4.91522 7.72715 4.95138 7.71486 4.98277C7.70121 5.01553 7.68415 5.04419 7.66164 5.06602C7.63912 5.08991 7.6125 5.10765 7.5818 5.11925C7.54972 5.13222 7.51629 5.13904 7.47944 5.13904C7.44259 5.13904 7.40847 5.13222 7.37776 5.11925C7.34569 5.10697 7.31907 5.08991 7.29792 5.06602C7.2754 5.04282 7.25766 5.01553 7.24538 4.98277C7.23173 4.95138 7.22559 4.9159 7.22559 4.877ZM7.36002 5.57919V5.21956H7.50264V5.45567H8.03149V5.57919H7.36002ZM7.59203 4.877C7.59203 4.83879 7.58316 4.80603 7.56542 4.7801C7.54699 4.75417 7.51833 4.74052 7.47944 4.74052C7.44259 4.74052 7.41461 4.75349 7.39618 4.7801C7.37776 4.80603 7.36821 4.83879 7.36821 4.87632C7.36821 4.9159 7.37776 4.94865 7.39618 4.97458C7.41461 5.00052 7.44259 5.01416 7.47944 5.01416C7.51833 5.01416 7.54699 5.0012 7.56542 4.97458C7.58316 4.94865 7.59203 4.91658 7.59203 4.87768V4.877ZM8.0158 5.33148H7.87318V4.57129H8.0158V5.33148Z" fill="#00479C"/>
<path d="M8.12763 4.67326H8.58757V4.72171C8.58757 4.79814 8.57733 4.87047 8.55754 4.93803C8.53707 5.00695 8.50704 5.07041 8.46951 5.12705C8.43062 5.18642 8.38421 5.23828 8.32962 5.28537C8.27435 5.33313 8.21157 5.37476 8.14196 5.41025L8.07031 5.29902C8.11944 5.27513 8.16721 5.24442 8.21089 5.20962C8.25388 5.17482 8.29209 5.13661 8.32485 5.09293C8.3576 5.05131 8.38421 5.00422 8.40469 4.95441C8.42516 4.90527 8.43676 4.85273 8.44085 4.79814H8.12763V4.67462V4.67326ZM8.85779 4.94554H8.99837V5.06905H8.85779V5.59108H8.71517V4.57227H8.85779V4.94554Z" fill="#00479C"/>
<path d="M8.9707 5.45919V5.33568H9.86396V5.45919H8.9707ZM9.74863 5.15007H9.09353V4.64783H9.7384V4.77134H9.23615V5.02724H9.74863V5.15075V5.15007Z" fill="#00479C"/>
<path d="M5.79918 9.72355V9.47994H6.35874V9.97945C6.2516 10.0525 6.15675 10.1023 6.07418 10.1289C5.99161 10.1555 5.89403 10.1685 5.78144 10.1685C5.64223 10.1685 5.52895 10.1446 5.44092 10.0975C5.35289 10.0497 5.28533 9.97945 5.23688 9.88528C5.18843 9.79111 5.16455 9.68398 5.16455 9.56251C5.16455 9.43422 5.19116 9.32299 5.24371 9.22882C5.29625 9.13397 5.37405 9.06231 5.47572 9.01318C5.55488 8.97565 5.66202 8.95654 5.79645 8.95654C5.93088 8.95654 6.023 8.96814 6.08715 8.99203C6.15129 9.01523 6.20452 9.05208 6.24683 9.10121C6.28914 9.15034 6.32121 9.21312 6.34236 9.28887L5.99298 9.35097C5.97865 9.30661 5.95408 9.27317 5.91996 9.24929C5.88584 9.22609 5.84149 9.21381 5.78826 9.21381C5.7091 9.21381 5.64564 9.2411 5.59855 9.29638C5.55147 9.35165 5.52758 9.439 5.52758 9.55841C5.52758 9.68534 5.55147 9.7761 5.59924 9.83001C5.647 9.88392 5.7132 9.91189 5.7985 9.91189C5.83876 9.91189 5.87765 9.90575 5.9145 9.89415C5.95135 9.88255 5.99366 9.86276 6.04075 9.8341V9.72355H5.7985H5.79918Z" fill="#00479C"/>
<path d="M7.2054 8.97571H7.56707V9.67448C7.56707 9.7434 7.55615 9.80891 7.535 9.87101C7.51316 9.93242 7.47972 9.98633 7.43332 10.0327C7.38692 10.0785 7.33915 10.1112 7.28797 10.1296C7.21768 10.1556 7.13307 10.1685 7.0348 10.1685C6.97748 10.1685 6.91538 10.1644 6.84783 10.1563C6.78027 10.1481 6.72431 10.1324 6.67859 10.1085C6.63355 10.0846 6.59193 10.0512 6.5544 10.0075C6.51686 9.96381 6.49093 9.91878 6.47729 9.87237C6.45477 9.79799 6.44385 9.7318 6.44385 9.67448V8.97571H6.80552V9.69086C6.80552 9.755 6.82326 9.80482 6.85874 9.84098C6.89423 9.87715 6.94336 9.89489 7.00614 9.89489C7.06892 9.89489 7.11737 9.87715 7.15286 9.84167C7.18834 9.80618 7.20608 9.75637 7.20608 9.69086V8.97571H7.2054Z" fill="#00479C"/>
<path d="M8.3411 9.95524H7.92962L7.8723 10.149H7.50244L7.94327 8.97668H8.33837L8.7792 10.149H8.39979L8.3411 9.95524ZM8.26604 9.70207L8.13639 9.28035L8.0081 9.70207H8.26536H8.26604Z" fill="#00479C"/>
<path d="M8.76758 10.1481V8.97571H9.3715C9.48341 8.97571 9.56871 8.98526 9.62808 9.00437C9.68745 9.02348 9.73521 9.05896 9.77138 9.11082C9.80755 9.16268 9.82597 9.22615 9.82597 9.30053C9.82597 9.36535 9.81232 9.42199 9.78435 9.46908C9.75637 9.51616 9.71815 9.55438 9.6697 9.58372C9.639 9.60215 9.596 9.61784 9.54278 9.63012C9.58577 9.64445 9.61716 9.65878 9.63695 9.67311C9.64991 9.68267 9.6697 9.70314 9.69495 9.73453C9.7202 9.76592 9.73726 9.79049 9.74545 9.80755L9.92082 10.1474H9.51139L9.31759 9.78912C9.29302 9.74272 9.27119 9.71269 9.25208 9.69905C9.22615 9.68062 9.19612 9.67175 9.16337 9.67175H9.13129V10.1474H8.76758V10.1481ZM9.13129 9.45065H9.28415C9.30053 9.45065 9.3326 9.44519 9.38037 9.43496C9.40425 9.43018 9.42404 9.4179 9.43905 9.39811C9.45407 9.37832 9.46157 9.3558 9.46157 9.32987C9.46157 9.29234 9.44929 9.263 9.42541 9.24252C9.40152 9.22205 9.35648 9.21182 9.29029 9.21182H9.13129V9.44997V9.45065Z" fill="#00479C"/>
<path d="M9.91064 8.97571H10.4491C10.5548 8.97571 10.6408 8.99004 10.7063 9.0187C10.7718 9.04736 10.8257 9.08899 10.868 9.14289C10.9104 9.1968 10.9417 9.25958 10.9608 9.33055C10.98 9.4022 10.9895 9.47795 10.9895 9.55779C10.9895 9.68335 10.9752 9.78025 10.9465 9.84917C10.9179 9.91809 10.8783 9.9761 10.8278 10.0225C10.7773 10.0689 10.7227 10.1003 10.6647 10.116C10.5855 10.1371 10.5132 10.1481 10.4491 10.1481H9.91064V8.97571ZM10.273 9.24116V9.88193H10.3617C10.4375 9.88193 10.4914 9.87374 10.5234 9.85668C10.5555 9.83962 10.5808 9.81028 10.5985 9.76865C10.6169 9.72702 10.6258 9.65878 10.6258 9.5653C10.6258 9.4411 10.6053 9.3558 10.5651 9.31008C10.5248 9.26436 10.4572 9.24116 10.3638 9.24116H10.2737H10.273Z" fill="#00479C"/>
</svg>
