<svg width="24" height="24" viewBox="0 0 24 24" fill="none" xmlns="http://www.w3.org/2000/svg">
<path d="M6 13.7143L5.64645 13.3607L5.5 13.5072V13.7143H6ZM13.7143 6L14.0678 5.64645C13.9741 5.55268 13.8469 5.5 13.7143 5.5C13.5817 5.5 13.4545 5.55268 13.3607 5.64645L13.7143 6ZM18 10.2857L18.3536 10.6393C18.5488 10.444 18.5488 10.1274 18.3536 9.93216L18 10.2857ZM10.2857 18V18.5H10.4928L10.6393 18.3536L10.2857 18ZM6 18H5.5C5.5 18.2761 5.72386 18.5 6 18.5V18ZM6.35355 14.0678L14.0678 6.35355L13.3607 5.64645L5.64645 13.3607L6.35355 14.0678ZM13.3607 6.35355L17.6464 10.6393L18.3536 9.93216L14.0678 5.64645L13.3607 6.35355ZM17.6464 9.93216L9.93216 17.6464L10.6393 18.3536L18.3536 10.6393L17.6464 9.93216ZM10.2857 17.5H6V18.5H10.2857V17.5ZM6.5 18V13.7143H5.5V18H6.5ZM10.7893 8.92498L15.075 13.2107L15.7821 12.5036L11.4964 8.21788L10.7893 8.92498ZM12.4286 18.5H18.4286V17.5H12.4286V18.5Z" fill="#717171"/>
</svg>
