<svg width="24" height="24" viewBox="0 0 24 24" fill="none" xmlns="http://www.w3.org/2000/svg">
<path d="M4.00002 12L3.53578 11.8143C3.4881 11.9335 3.4881 12.0665 3.53578 12.1857L4.00002 12ZM20.8 12L21.2643 12.1857C21.3119 12.0665 21.3119 11.9335 21.2643 11.8143L20.8 12ZM12.4 17.5C9.58599 17.5 7.61113 16.0983 6.32166 14.6655C5.67657 13.9488 5.20938 13.2303 4.90378 12.691C4.75126 12.4218 4.63977 12.1987 4.56712 12.0446C4.53082 11.9676 4.50428 11.908 4.48721 11.8686C4.47868 11.8489 4.47253 11.8343 4.46871 11.8251C4.46681 11.8205 4.46548 11.8173 4.46474 11.8155C4.46437 11.8146 4.46415 11.814 4.46407 11.8138C4.46402 11.8137 4.46402 11.8137 4.46405 11.8138C4.46407 11.8138 4.46412 11.814 4.46413 11.814C4.46419 11.8141 4.46426 11.8143 4.00002 12C3.53578 12.1857 3.53587 12.1859 3.53596 12.1862C3.53601 12.1863 3.53611 12.1865 3.5362 12.1868C3.53638 12.1872 3.5366 12.1877 3.53685 12.1884C3.53736 12.1896 3.53801 12.1912 3.53882 12.1932C3.54043 12.1972 3.54264 12.2025 3.54546 12.2093C3.55109 12.2228 3.55914 12.2419 3.56966 12.2662C3.59068 12.3147 3.62156 12.384 3.6626 12.471C3.74464 12.6451 3.86752 12.8907 4.03375 13.184C4.36565 13.7697 4.87345 14.5512 5.57836 15.3345C6.98888 16.9017 9.21401 18.5 12.4 18.5V17.5ZM4.00002 12C4.46426 12.1857 4.46419 12.1859 4.46413 12.186C4.46412 12.186 4.46407 12.1862 4.46405 12.1862C4.46402 12.1863 4.46402 12.1863 4.46407 12.1862C4.46415 12.186 4.46437 12.1854 4.46474 12.1845C4.46548 12.1827 4.46681 12.1795 4.46871 12.1749C4.47253 12.1657 4.47868 12.1511 4.48721 12.1314C4.50428 12.092 4.53082 12.0324 4.56712 11.9554C4.63977 11.8013 4.75126 11.5782 4.90378 11.309C5.20938 10.7697 5.67657 10.0512 6.32166 9.33448C7.61113 7.90173 9.58599 6.5 12.4 6.5V5.5C9.21401 5.5 6.98888 7.09827 5.57836 8.66552C4.87345 9.44875 4.36565 10.2303 4.03375 10.816C3.86752 11.1093 3.74464 11.3549 3.6626 11.529C3.62156 11.616 3.59068 11.6853 3.56966 11.7338C3.55914 11.7581 3.55109 11.7772 3.54546 11.7907C3.54264 11.7975 3.54043 11.8028 3.53882 11.8068C3.53801 11.8088 3.53736 11.8104 3.53685 11.8116C3.5366 11.8123 3.53638 11.8128 3.5362 11.8132C3.53611 11.8135 3.53601 11.8137 3.53596 11.8138C3.53587 11.8141 3.53578 11.8143 4.00002 12ZM12.4 6.5C15.214 6.5 17.1889 7.90173 18.4784 9.33448C19.1235 10.0512 19.5906 10.7697 19.8963 11.309C20.0488 11.5782 20.1603 11.8013 20.2329 11.9554C20.2692 12.0324 20.2958 12.092 20.3128 12.1314C20.3214 12.1511 20.3275 12.1657 20.3313 12.1749C20.3332 12.1795 20.3346 12.1827 20.3353 12.1845C20.3357 12.1854 20.3359 12.186 20.336 12.1862C20.336 12.1863 20.336 12.1863 20.336 12.1862C20.336 12.1862 20.3359 12.186 20.3359 12.186C20.3358 12.1859 20.3358 12.1857 20.8 12C21.2643 11.8143 21.2642 11.8141 21.2641 11.8138C21.264 11.8137 21.2639 11.8135 21.2638 11.8132C21.2637 11.8128 21.2634 11.8123 21.2632 11.8116C21.2627 11.8104 21.262 11.8088 21.2612 11.8068C21.2596 11.8028 21.2574 11.7975 21.2546 11.7907C21.2489 11.7772 21.2409 11.7581 21.2304 11.7338C21.2094 11.6853 21.1785 11.616 21.1374 11.529C21.0554 11.3549 20.9325 11.1093 20.7663 10.816C20.4344 10.2303 19.9266 9.44875 19.2217 8.66552C17.8111 7.09827 15.586 5.5 12.4 5.5V6.5ZM20.8 12C20.3358 11.8143 20.3358 11.8141 20.3359 11.814C20.3359 11.814 20.336 11.8138 20.336 11.8138C20.336 11.8137 20.336 11.8137 20.336 11.8138C20.3359 11.814 20.3357 11.8146 20.3353 11.8155C20.3346 11.8173 20.3332 11.8205 20.3313 11.8251C20.3275 11.8343 20.3214 11.8489 20.3128 11.8686C20.2958 11.908 20.2692 11.9676 20.2329 12.0446C20.1603 12.1987 20.0488 12.4218 19.8963 12.691C19.5906 13.2303 19.1235 13.9488 18.4784 14.6655C17.1889 16.0983 15.214 17.5 12.4 17.5V18.5C15.586 18.5 17.8111 16.9017 19.2217 15.3345C19.9266 14.5512 20.4344 13.7697 20.7663 13.184C20.9325 12.8907 21.0554 12.6451 21.1374 12.471C21.1785 12.384 21.2094 12.3147 21.2304 12.2662C21.2409 12.2419 21.2489 12.2228 21.2546 12.2093C21.2574 12.2025 21.2596 12.1972 21.2612 12.1932C21.262 12.1912 21.2627 12.1896 21.2632 12.1884C21.2634 12.1877 21.2637 12.1872 21.2638 12.1868C21.2639 12.1865 21.264 12.1863 21.2641 12.1862C21.2642 12.1859 21.2643 12.1857 20.8 12ZM12.4 13.9C11.3507 13.9 10.5 13.0493 10.5 12H9.50002C9.50002 13.6016 10.7984 14.9 12.4 14.9V13.9ZM14.3 12C14.3 13.0493 13.4494 13.9 12.4 13.9V14.9C14.0016 14.9 15.3 13.6016 15.3 12H14.3ZM12.4 10.1C13.4494 10.1 14.3 10.9507 14.3 12H15.3C15.3 10.3984 14.0016 9.1 12.4 9.1V10.1ZM12.4 9.1C10.7984 9.1 9.50002 10.3984 9.50002 12H10.5C10.5 10.9507 11.3507 10.1 12.4 10.1V9.1Z" fill="#00479C"/>
</svg>
