<svg width="30" height="28" viewBox="0 0 30 28" fill="none" xmlns="http://www.w3.org/2000/svg">
<path d="M1 17.6154L0.308958 16.8926L0 17.1879V17.6154H1ZM18.3793 1L19.0704 0.277186C18.6838 -0.0923952 18.0748 -0.0923952 17.6883 0.277186L18.3793 1ZM28.0345 10.2308L28.7255 10.9536C28.9229 10.7649 29.0345 10.5038 29.0345 10.2308C29.0345 9.95776 28.9229 9.69662 28.7255 9.50795L28.0345 10.2308ZM10.6552 26.8462V27.8462H11.0563L11.3462 27.569L10.6552 26.8462ZM1 26.8462H0C0 27.3984 0.447715 27.8462 1 27.8462L1 26.8462ZM1.69104 18.3382L19.0704 1.72281L17.6883 0.277186L0.308958 16.8926L1.69104 18.3382ZM17.6883 1.72281L27.3434 10.9536L28.7255 9.50795L19.0704 0.277186L17.6883 1.72281ZM27.3434 9.50795L9.96413 26.1233L11.3462 27.569L28.7255 10.9536L27.3434 9.50795ZM10.6552 25.8462H1V27.8462H10.6552V25.8462ZM2 26.8462V17.6154H0V26.8462H2ZM11.8952 7.26128L21.5503 16.492L22.9324 15.0464L13.2772 5.81565L11.8952 7.26128ZM15.4828 27.8462H29V25.8462H15.4828V27.8462Z" fill="white"/>
</svg>
