<svg width="24" height="24" viewBox="0 0 24 24" fill="none" xmlns="http://www.w3.org/2000/svg">
<circle cx="12" cy="12" r="12" fill="#00479C"/>
<path fill-rule="evenodd" clip-rule="evenodd" d="M10.444 5L10.358 5.43671L10.029 7.03467C9.50301 7.23554 9.026 7.52037 8.595 7.85815L6.987 7.3205L6.55501 7.18658L6.33101 7.57233L5.224 9.4231L5 9.8089L5.328 10.0957L6.57201 11.154C6.52701 11.4308 6.46901 11.7046 6.46901 11.9954C6.46901 12.2862 6.52701 12.5601 6.57201 12.8369L5.328 13.8952L5 14.182L5.224 14.5677L6.33101 16.4186L6.55501 16.8053L6.987 16.6704L8.595 16.1328C9.026 16.4705 9.50301 16.7553 10.029 16.9562L10.358 18.5541L10.444 18.9909H13.555L13.642 18.5541L13.97 16.9562C14.496 16.7553 14.973 16.4705 15.404 16.1328L17.012 16.6704L17.444 16.8053L17.669 16.4186L18.775 14.5677L19 14.182L18.671 13.8952L17.427 12.8369C17.473 12.5601 17.53 12.2862 17.53 11.9954C17.53 11.7046 17.473 11.4308 17.427 11.154L18.671 10.0957L19 9.8089L18.775 9.4231L17.669 7.57233L17.444 7.18658L17.012 7.3205L15.404 7.85815C14.973 7.52037 14.496 7.23554 13.97 7.03467L13.642 5.43671L13.555 5H10.444Z" stroke="white" stroke-linecap="square" stroke-linejoin="round"/>
<path fill-rule="evenodd" clip-rule="evenodd" d="M13.9996 11.9954C13.9996 13.0987 13.1036 13.9941 11.9996 13.9941C10.8956 13.9941 9.99963 13.0987 9.99963 11.9954C9.99963 10.8921 10.8956 9.99677 11.9996 9.99677C13.1036 9.99677 13.9996 10.8921 13.9996 11.9954Z" stroke="white" stroke-linecap="square" stroke-linejoin="round"/>
</svg>
