<svg width="24" height="24" viewBox="0 0 24 24" fill="none" xmlns="http://www.w3.org/2000/svg">
<path fill-rule="evenodd" clip-rule="evenodd" d="M11.818 5.47487C12.4422 4.85067 13.2888 4.5 14.1716 4.5C16.0098 4.5 17.5 5.99019 17.5 7.82843C17.5 8.71118 17.1493 9.55778 16.5251 10.182L10.7678 15.9393C10.4088 16.2983 9.92189 16.5 9.41421 16.5C8.35702 16.5 7.5 15.643 7.5 14.5858C7.5 14.0781 7.70168 13.5912 8.06066 13.2322L13.6464 7.64645L14.3536 8.35355L8.76777 13.9393C8.59632 14.1108 8.5 14.3433 8.5 14.5858C8.5 15.0907 8.90931 15.5 9.41421 15.5C9.65668 15.5 9.88921 15.4037 10.0607 15.2322L15.818 9.47487C16.2547 9.03821 16.5 8.44596 16.5 7.82843C16.5 6.54247 15.4575 5.5 14.1716 5.5C13.554 5.5 12.9618 5.74531 12.5251 6.18198L6.59619 12.1109C5.89431 12.8128 5.5 13.7647 5.5 14.7574C5.5 16.8244 7.17564 18.5 9.24264 18.5C10.2353 18.5 11.1872 18.1057 11.8891 17.4038L17.6464 11.6464L18.3536 12.3536L12.5962 18.1109C11.7068 19.0003 10.5005 19.5 9.24264 19.5C6.62335 19.5 4.5 17.3766 4.5 14.7574C4.5 13.4995 4.99967 12.2932 5.88909 11.4038L11.818 5.47487Z" fill="#717171"/>
</svg>
