<svg width="50" height="72" viewBox="0 0 50 72" fill="none" xmlns="http://www.w3.org/2000/svg">
<path d="M47.4299 27.7401C46.5599 26.8701 45.3699 26.3401 44.0499 26.3401C43.3499 26.3401 42.6799 26.4901 42.0799 26.7701C40.4299 27.5101 39.2799 29.1701 39.2799 31.1101V11.9301C39.2799 10.6101 38.7499 9.42007 37.8799 8.55007C37.0099 7.68007 35.8199 7.15007 34.4999 7.15007C32.0399 7.15007 30.0199 9.00007 29.7499 11.3901V6.60007C29.7499 5.28007 29.2199 4.09007 28.3499 3.22007C27.4799 2.35007 26.2899 1.82007 24.9699 1.82007C22.3399 1.82007 20.1999 3.96007 20.1999 6.59007V11.4201C20.0899 10.3001 19.5799 9.29007 18.8299 8.53007C17.9599 7.66007 16.7699 7.13007 15.4499 7.13007C12.8099 7.13007 10.6799 9.27007 10.6799 11.9001V19.1001C10.5599 17.9901 10.0599 17.0001 9.30991 16.2601C8.43991 15.3901 7.24991 14.8601 5.92991 14.8601C3.28991 14.8601 1.15991 17.0001 1.15991 19.6301V45.3601C1.15991 59.0401 12.0699 70.1301 25.7499 70.1301C34.4299 70.1301 42.0699 65.6601 46.4899 58.9001C47.4099 57.4901 48.1899 55.9801 48.8199 54.3901V31.0901C48.8199 29.7701 48.2899 28.5801 47.4199 27.7101L47.4299 27.7401Z" fill="white"/>
<path d="M25.7599 71.1601C11.6499 71.1601 0.169922 59.6001 0.169922 45.3901V19.6601C0.169922 16.4801 2.75992 13.8901 5.93992 13.8901C7.32992 13.8901 8.63992 14.3801 9.68992 15.2701V11.9301C9.68992 8.7501 12.2799 6.1601 15.4599 6.1601C16.8499 6.1601 18.1599 6.6501 19.2099 7.5401V6.6201C19.2099 3.4401 21.7999 0.850098 24.9799 0.850098C26.5199 0.850098 27.9699 1.4501 29.0599 2.5401C30.1499 3.6301 30.7499 5.0801 30.7499 6.6201V7.5401C31.7599 6.6801 33.0699 6.1701 34.4999 6.1701C36.0399 6.1701 37.4899 6.7701 38.5799 7.8601C39.6699 8.9501 40.2699 10.4001 40.2699 11.9401V26.7601C40.6799 26.4001 41.1499 26.1001 41.6599 25.8701C42.3899 25.5301 43.1999 25.3501 44.0399 25.3501C45.5799 25.3501 47.0299 25.9501 48.1199 27.0401C49.2099 28.1301 49.8099 29.5801 49.8099 31.1201V54.6101L49.7399 54.7901C49.0899 56.4301 48.2799 58.0101 47.3199 59.4801C42.5399 66.8001 34.4699 71.1601 25.7499 71.1601H25.7599ZM5.94992 15.8901C3.86992 15.8901 2.17992 17.5801 2.17992 19.6601V45.3901C2.17992 58.4901 12.7599 69.1601 25.7699 69.1601C33.8199 69.1601 41.2599 65.1301 45.6699 58.3801C46.5199 57.0801 47.2499 55.6801 47.8299 54.2201V31.1101C47.8299 30.1001 47.4399 29.1501 46.7299 28.4401C45.6299 27.3401 43.8699 27.0401 42.5099 27.6701C41.1499 28.2801 40.2799 29.6301 40.2799 31.1101H38.2799V11.9301C38.2799 10.9201 37.8899 9.9701 37.1799 9.2601C36.4699 8.5501 35.5199 8.1601 34.5099 8.1601C32.5799 8.1601 30.9699 9.6001 30.7599 11.5101L28.7699 11.4001V6.6101C28.7699 5.6001 28.3799 4.6501 27.6699 3.9401C26.9599 3.2301 26.0099 2.8401 24.9999 2.8401C22.9199 2.8401 21.2299 4.5301 21.2299 6.6101V11.4401L19.2299 11.5401C19.1399 10.6901 18.7599 9.8701 18.1499 9.2501C17.4399 8.5401 16.4899 8.1501 15.4799 8.1501C13.3999 8.1501 11.7099 9.8401 11.7099 11.9201V19.1201L9.71992 19.2301C9.62992 18.3901 9.23992 17.5901 8.63992 16.9801C7.92992 16.2701 6.97992 15.8801 5.96992 15.8801L5.94992 15.8901Z" fill="black"/>
<path d="M11.7002 19.1301H9.7002V39.0801H11.7002V19.1301Z" fill="black"/>
<path d="M21.21 11.4402H19.21V37.6302H21.21V11.4402Z" fill="black"/>
<path d="M30.7599 11.4001H28.7599V37.0901H30.7599V11.4001Z" fill="black"/>
<path d="M39.2795 31.1201V44.5301C39.2795 44.5301 31.4695 43.0001 27.8495 50.8501" fill="white"/>
<path d="M28.7595 51.2701L26.9395 50.4301C29.9695 43.8701 35.7695 43.3201 38.2795 43.4301V31.1101H40.2795V45.7401L39.0895 45.5101C38.7995 45.4601 31.9995 44.2501 28.7595 51.2701Z" fill="black"/>
</svg>
