<svg width="24" height="24" viewBox="0 0 24 24" fill="none" xmlns="http://www.w3.org/2000/svg">
<path d="M17.3214 18H20V16.5C20 15.1193 18.8008 14 17.3214 14M13.5714 6.99804C13.5714 8.65396 12.1325 9.99609 10.3571 9.99609C8.58179 9.99609 7.14286 8.65396 7.14286 6.99804C7.14286 5.34212 8.58179 4 10.3571 4C12.1325 4 13.5714 5.34212 13.5714 6.99804ZM15.7143 17.9909H5C5 17.2808 5 16.6053 5 15.9936C5 14.3368 6.43908 12.9941 8.21429 12.9941H12.5C14.2752 12.9941 15.7143 14.3368 15.7143 15.9936C15.7143 16.6053 15.7143 17.2808 15.7143 17.9909ZM16.7857 12C15.6022 12 14.6429 11.1046 14.6429 10C14.6429 8.89543 15.6022 8 16.7857 8C17.9692 8 18.9286 8.89543 18.9286 10C18.9286 11.1046 17.9692 12 16.7857 12Z" stroke="#171717"/>
</svg>
