<svg width="24" height="24" viewBox="0 0 24 24" fill="none" xmlns="http://www.w3.org/2000/svg">
<path fill-rule="evenodd" clip-rule="evenodd" d="M4.5 11C4.5 7.41015 7.41015 4.5 11 4.5C14.5899 4.5 17.5 7.41015 17.5 11C17.5 12.6149 16.911 14.0923 15.9362 15.2291L19.3536 18.6464L18.6464 19.3536L15.2291 15.9362C14.0923 16.911 12.6149 17.5 11 17.5C7.41015 17.5 4.5 14.5899 4.5 11ZM11 5.5C7.96243 5.5 5.5 7.96243 5.5 11C5.5 14.0376 7.96243 16.5 11 16.5C14.0376 16.5 16.5 14.0376 16.5 11C16.5 7.96243 14.0376 5.5 11 5.5Z" fill="#171717"/>
</svg>
