<svg width="52" height="72" viewBox="0 0 52 72" fill="none" xmlns="http://www.w3.org/2000/svg">
<path d="M49.6803 13.1202L39.1603 32.8602H44.7103C47.3103 32.8602 49.4203 34.9702 49.4203 37.5702V54.5902C48.8003 56.1802 48.0203 57.6902 47.0903 59.1002C46.7803 59.5802 46.4403 60.0502 46.1003 60.5002C41.5803 66.4702 34.4203 70.3302 26.3603 70.3302C12.6803 70.3302 1.77026 59.2402 1.77026 45.5602V37.4902C2.02026 39.8902 4.05026 41.7702 6.52026 41.7702C8.99026 41.7702 11.1503 39.7702 11.2803 37.2402C11.4003 39.7702 13.4903 41.7702 16.0403 41.7702C18.5903 41.7702 20.8103 39.6302 20.8103 37.0002V6.43016C20.8103 3.80016 22.9503 1.66016 25.5803 1.66016C26.8903 1.66016 28.0903 2.19016 28.9603 3.06016C29.8203 3.93016 30.3603 5.12016 30.3603 6.43016V29.0802L41.2503 8.63016C42.4903 6.30016 45.3803 5.42016 47.7103 6.66016C49.3203 7.52016 50.2403 9.17016 50.2403 10.8802C50.2403 11.6402 50.0603 12.4102 49.6803 13.1202Z" fill="white"/>
<path d="M26.3703 71.3401C12.2603 71.3401 0.780273 59.7802 0.780273 45.5702V37.5002L2.78027 37.4002C2.98027 39.3302 4.59027 40.7902 6.54027 40.7902C8.49027 40.7902 10.2003 39.2202 10.3003 37.2102H12.3003C12.3903 39.2202 14.0503 40.7902 16.0603 40.7902C18.0703 40.7902 19.8303 39.1002 19.8303 37.0202V6.43016C19.8303 3.25016 22.4203 0.660156 25.6003 0.660156C27.1403 0.660156 28.5903 1.26016 29.6803 2.35016C30.7703 3.45016 31.3703 4.90016 31.3703 6.43016V25.0802L40.3803 8.16016C41.8803 5.36016 45.3803 4.29016 48.1903 5.77016C50.0803 6.78016 51.2503 8.73016 51.2503 10.8702C51.2503 11.8002 51.0203 12.7402 50.5803 13.5802L40.8403 31.8602H44.7303C47.8803 31.8602 50.4403 34.4202 50.4403 37.5702V54.7802L50.3703 54.9602C49.7203 56.6102 48.9103 58.1802 47.9503 59.6502C47.6403 60.1302 47.2903 60.6202 46.9103 61.1202C41.9903 67.6102 34.5103 71.3401 26.3703 71.3401ZM2.78027 41.4202V45.5802C2.78027 58.6802 13.3603 69.3502 26.3703 69.3502C33.8703 69.3502 40.7803 65.9102 45.3203 59.9202C45.6703 59.4602 45.9903 59.0102 46.2703 58.5802C47.1203 57.2702 47.8503 55.8702 48.4403 54.4202V37.5902C48.4403 35.5402 46.7803 33.8802 44.7303 33.8802H37.5103L48.8103 12.6702C49.1003 12.1102 49.2503 11.5102 49.2503 10.8902C49.2503 9.49016 48.4803 8.21016 47.2503 7.55016C45.4203 6.58016 43.1303 7.28016 42.1503 9.11016L29.3803 33.1002V6.43016C29.3803 5.43016 28.9903 4.48016 28.2703 3.76016C27.5603 3.05016 26.6103 2.66016 25.6003 2.66016C23.5203 2.66016 21.8303 4.35016 21.8303 6.43016V37.0102C21.8303 40.1902 19.2403 42.7802 16.0603 42.7802C14.0903 42.7802 12.3403 41.7902 11.3003 40.2702C10.2603 41.7902 8.51027 42.7802 6.54027 42.7802C5.11027 42.7802 3.80027 42.2702 2.79027 41.4002L2.78027 41.4202Z" fill="black"/>
<path d="M11.3003 24.7302V37.0202C11.3003 37.1102 11.3003 37.1902 11.3003 37.2702C11.2903 37.1902 11.2903 37.1102 11.2903 37.0202V24.2402C11.3003 24.4002 11.3103 24.5702 11.3103 24.7302H11.3003Z" fill="white"/>
<path d="M11.6503 44.6101L10.3103 37.4401C10.2803 37.3001 10.2803 37.1601 10.2803 37.0101V24.2301L12.2803 24.1401C12.3003 24.3301 12.3103 24.5301 12.3103 24.7201V37.0101C12.3103 37.1301 12.3103 37.2401 12.3003 37.3401L11.6603 44.6001L11.6503 44.6101Z" fill="black"/>
<path d="M20.8195 22.1101V37.0101C20.8195 39.6501 18.6795 41.7801 16.0495 41.7801C13.4195 41.7801 11.4095 39.7801 11.2895 37.2501C11.2895 37.1701 11.2895 37.0901 11.2895 37.0001V24.7101C11.2895 24.5501 11.2895 24.3801 11.2695 24.2201V22.0901C11.2695 19.4501 13.4095 17.3201 16.0395 17.3201C17.3595 17.3201 18.5495 17.8501 19.4095 18.7201C20.2795 19.5901 20.8095 20.7801 20.8095 22.1001L20.8195 22.1101Z" fill="white"/>
<path d="M16.0495 42.7901C12.9695 42.7901 10.4395 40.3801 10.2895 37.3101V37.1701C10.2895 37.1701 10.2895 37.0601 10.2895 37.0101V24.7201C10.2895 24.5901 10.2895 24.4501 10.2695 24.3201V22.1001C10.2695 18.9201 12.8595 16.3301 16.0395 16.3301C17.5895 16.3301 19.0395 16.9301 20.1195 18.0201C21.2095 19.1101 21.8095 20.5601 21.8095 22.1001V37.0001C21.8095 40.1801 19.2195 42.7701 16.0395 42.7701L16.0495 42.7901ZM12.2895 37.2701C12.4095 39.2501 14.0495 40.7901 16.0495 40.7901C18.0495 40.7901 19.8195 39.1001 19.8195 37.0201V22.1201C19.8195 21.1101 19.4295 20.1601 18.7195 19.4501C18.0095 18.7401 17.0695 18.3501 16.0595 18.3501C13.9795 18.3501 12.2895 20.0401 12.2895 22.1201V24.2501C12.2995 24.3501 12.3095 24.5501 12.3095 24.7401V37.0301C12.3095 37.1201 12.3095 37.2001 12.3095 37.2801L12.2895 37.2701Z" fill="black"/>
<path d="M29.1095 40.2202C29.9495 41.5302 31.4195 42.4102 33.0895 42.4102H39.8895" fill="white"/>
<path d="M39.8895 43.4102H33.0895C31.1295 43.4102 29.3195 42.4202 28.2695 40.7602L29.9595 39.6802C30.6495 40.7602 31.8195 41.4002 33.0995 41.4002H39.8995V43.4002L39.8895 43.4102Z" fill="black"/>
<path d="M28.4503 51.0201C32.0703 43.1701 39.8803 44.7001 39.8803 44.7001V42.4001H33.0803C31.4103 42.4001 29.9403 41.5301 29.1003 40.2101C28.6403 39.4801 28.3703 38.6101 28.3703 37.6801V37.5601C28.3703 35.9901 29.1403 34.5901 30.3303 33.7401C30.3303 33.7401 30.3403 33.7301 30.3503 33.7301C31.1203 33.1801 32.0603 32.8601 33.0803 32.8601H44.7103C47.3103 32.8601 49.4203 34.9701 49.4203 37.5701V54.5901C48.8003 56.1801 48.0203 57.6901 47.0903 59.1001C46.7803 59.5801 46.4403 60.0501 46.1003 60.5001C41.5803 66.4701 34.4203 70.3301 26.3603 70.3301C12.6803 70.3301 1.77026 59.2401 1.77026 45.5601V37.4901C2.02026 39.8901 4.05026 41.7701 6.52026 41.7701C8.99026 41.7701 11.1503 39.7701 11.2803 37.2401C11.4003 39.7701 13.4903 41.7701 16.0403 41.7701C18.5903 41.7701 20.8103 39.6301 20.8103 37.0001" fill="white"/>
<path d="M26.3703 71.3401C12.2603 71.3401 0.780273 59.7801 0.780273 45.5701V37.5001L2.78027 37.4001C2.98027 39.3301 4.60027 40.7901 6.54027 40.7901C8.48027 40.7901 10.2003 39.2201 10.3003 37.2101H12.3003C12.3903 39.2201 14.0503 40.7901 16.0603 40.7901C18.0703 40.7901 19.8303 39.1001 19.8303 37.0201H21.8303C21.8303 40.2001 19.2403 42.7901 16.0603 42.7901C14.0903 42.7901 12.3403 41.8001 11.3003 40.2801C10.2603 41.8001 8.51027 42.7901 6.54027 42.7901C5.11027 42.7901 3.80027 42.2801 2.79027 41.4101V45.5701C2.79027 58.6701 13.3703 69.3401 26.3803 69.3401C33.8803 69.3401 40.7903 65.9001 45.3303 59.9101C45.6903 59.4401 46.0003 59.0001 46.2803 58.5701C47.1303 57.2601 47.8603 55.8601 48.4503 54.4101V37.5801C48.4503 35.5301 46.7903 33.8701 44.7403 33.8701H33.1103C32.3203 33.8701 31.5803 34.1101 30.9703 34.5501L30.8503 34.6301C29.9403 35.3301 29.4003 36.4201 29.4003 37.5701V37.6901C29.4003 38.4001 29.6003 39.0801 29.9803 39.6801C30.6703 40.7501 31.8403 41.4001 33.1103 41.4001H40.9103V45.7001L39.7103 45.6801C39.4203 45.6301 32.6203 44.4201 29.3803 51.4401L27.5603 50.6001C30.5903 44.0401 36.4003 43.4901 38.9003 43.6001V43.4001H33.1003C31.1403 43.4001 29.3303 42.4101 28.2803 40.7501C27.7003 39.8301 27.3903 38.7701 27.3903 37.6901V37.5701C27.3903 35.7601 28.2503 34.0601 29.7003 32.9801L29.9403 32.7401H30.0503C30.9503 32.1601 32.0003 31.8501 33.1003 31.8501H44.7303C47.8803 31.8501 50.4403 34.4101 50.4403 37.5601V54.7701L50.3703 54.9501C49.7203 56.5901 48.9103 58.1701 47.9503 59.6401C47.6403 60.1201 47.3003 60.6001 46.9103 61.1001C41.9903 67.5901 34.5103 71.3201 26.3703 71.3201V71.3401Z" fill="black"/>
<path d="M11.2995 24.7302V37.0202C11.2995 37.1102 11.2995 37.1902 11.2995 37.2702C11.1695 39.8002 9.08953 41.8002 6.53953 41.8002C3.98953 41.8002 2.03953 39.9202 1.78953 37.5202C1.77953 37.3602 1.76953 37.1902 1.76953 37.0302V24.7402C1.76953 24.5802 1.76953 24.4102 1.78953 24.2502C2.03953 21.8502 4.06953 19.9702 6.53953 19.9702C7.85953 19.9702 9.04953 20.5002 9.90953 21.3702C10.6695 22.1302 11.1695 23.1402 11.2895 24.2602C11.2995 24.4202 11.3095 24.5902 11.3095 24.7502L11.2995 24.7302Z" fill="white"/>
<path d="M6.53 42.7902C3.56 42.7902 1.09 40.5602 0.780001 37.6102C0.760001 37.4002 0.75 37.2102 0.75 37.0202V24.7302C0.75 24.5402 0.750001 24.3502 0.780001 24.1602C1.09 21.1902 3.56 18.9602 6.53 18.9602C8.08 18.9602 9.53 19.5602 10.61 20.6502C11.55 21.5902 12.14 22.8302 12.27 24.1402C12.29 24.3402 12.3 24.5402 12.3 24.7302V37.0202C12.3 37.1402 12.3 37.2502 12.29 37.3602C12.14 40.3902 9.61 42.8002 6.53 42.8002V42.7902ZM6.53 20.9502C4.59 20.9502 2.97 22.4102 2.77 24.3402C2.77 24.4602 2.75 24.5902 2.75 24.7302V37.0202C2.75 37.1502 2.75 37.2902 2.77 37.4302C2.97 39.3402 4.58 40.8002 6.53 40.8002C8.48 40.8002 10.19 39.2302 10.29 37.2202C10.29 37.1302 10.29 37.0802 10.29 37.0202V24.7302C10.29 24.6002 10.29 24.4602 10.27 24.3302C10.19 23.4902 9.8 22.6802 9.18 22.0602C8.47 21.3502 7.53 20.9602 6.52 20.9602L6.53 20.9502Z" fill="black"/>
</svg>
