<svg width="24" height="24" viewBox="0 0 24 24" fill="none" xmlns="http://www.w3.org/2000/svg">
<path d="M6 14L5.62371 13.6707L5.5 13.8121V14H6ZM13 6L13.3123 5.60957C13.1034 5.44241 12.7999 5.46938 12.6237 5.67075L13 6ZM18 10L18.3536 10.3536C18.4541 10.253 18.5071 10.1144 18.4992 9.97235C18.4914 9.83035 18.4234 9.69841 18.3123 9.60957L18 10ZM10 18V18.5H10.2071L10.3536 18.3536L10 18ZM6 18H5.5C5.5 18.2761 5.72386 18.5 6 18.5V18ZM6.37629 14.3293L13.3763 6.32925L12.6237 5.67075L5.62371 13.6707L6.37629 14.3293ZM12.6877 6.39043L17.6877 10.3904L18.3123 9.60957L13.3123 5.60957L12.6877 6.39043ZM17.6464 9.64645L9.64645 17.6464L10.3536 18.3536L18.3536 10.3536L17.6464 9.64645ZM10 17.5H6V18.5H10V17.5ZM6.5 18V14H5.5V18H6.5ZM10.6464 9.35355L14.6464 13.3536L15.3536 12.6464L11.3536 8.64645L10.6464 9.35355ZM12 18.5H18V17.5H12V18.5Z" fill="#00479C"/>
</svg>
