<svg width="16" height="16" viewBox="0 0 16 16" fill="none" xmlns="http://www.w3.org/2000/svg">
    <path d="M6.965 3.79a.987.987 0 0 0-1.625.36l-3.28 9.024a.99.99 0 0 0 .922 1.326 1 1 0 0 0 .34-.063l9.024-3.28a.986.986 0 0 0 .361-1.626L6.965 3.79zm-.52 8.45-2.188-2.188.822-2.263 3.628 3.629-2.263.822zm-3.438 1.25.875-2.4 1.528 1.527-2.403.873zm6.74-2.45-4.29-4.29.812-2.242 5.714 5.715-2.236.817zM9.997 5c.009-.338.09-.67.24-.974.33-.662.956-1.026 1.76-1.026.418 0 .687-.143.853-.45.087-.173.137-.361.147-.554a.5.5 0 0 1 1 .004c0 .804-.533 2-2 2-.42 0-.688.143-.854.45-.087.173-.137.361-.146.554a.5.5 0 1 1-1-.004zm-1.5-2V1.5a.5.5 0 1 1 1 0V3a.5.5 0 1 1-1 0zm6.353 5.146a.5.5 0 0 1-.707.707l-1-1a.5.5 0 1 1 .707-.707l1 1zm.305-2.672-1.5.5a.5.5 0 0 1-.316-.948l1.5-.5a.5.5 0 0 1 .316.948z" fill="#00479C"/>
</svg>
