<svg width="80" height="80" viewBox="0 0 80 80" fill="none" xmlns="http://www.w3.org/2000/svg">
<path d="M40.0003 79.2001C61.6499 79.2001 79.2003 61.6496 79.2003 40C79.2003 18.3505 61.6499 0.800049 40.0003 0.800049C18.3507 0.800049 0.800293 18.3505 0.800293 40C0.800293 61.6496 18.3507 79.2001 40.0003 79.2001Z" fill="#00479C"/>
<path d="M40 80C17.944 80 0 62.056 0 40C0 17.944 17.944 0 40 0C62.056 0 80 17.944 80 40C80 62.056 62.056 80 40 80ZM40 1.6C18.824 1.6 1.6 18.824 1.6 40C1.6 61.176 18.824 78.4 40 78.4C61.176 78.4 78.4 61.176 78.4 40C78.4 18.824 61.176 1.6 40 1.6Z" fill="black"/>
<path d="M28.5671 24.7121V34.5441C28.5671 34.6161 28.5671 34.6801 28.5671 34.7441C28.5591 34.6801 28.5591 34.6161 28.5591 34.5441V24.3201C28.5671 24.4481 28.5751 24.5841 28.5751 24.7121H28.5671Z" fill="white"/>
<path d="M28.8237 40.8961L27.7677 34.8801C27.7517 34.7761 27.7437 34.6561 27.7437 34.5441V24.3201L29.3437 24.2561C29.3597 24.4081 29.3597 24.5601 29.3597 24.7121V34.5441C29.3597 34.6401 29.3597 34.7281 29.3517 34.8081L28.8157 40.8881L28.8237 40.8961Z" fill="black"/>
<path d="M43.8163 24.3201V31.9201C43.8163 31.9201 43.8083 31.9201 43.8003 31.9281V24.7121C43.8003 24.5841 43.8003 24.4481 43.8163 24.3201Z" fill="white"/>
<path d="M43 33.864V24.712C43 24.56 43 24.4 43.016 24.248L44.616 24.32V32.72H44.144L43 33.864Z" fill="black"/>
<path d="M43.8163 24.3201V31.9201C43.8163 31.9201 43.8083 31.9201 43.8003 31.9281V24.7121C43.8003 24.5841 43.8003 24.4481 43.8163 24.3201Z" fill="white"/>
<path d="M43 33.864V24.712C43 24.56 43 24.4 43.016 24.248L44.616 24.32V32.72H44.144L43 33.864Z" fill="black"/>
<path d="M36.1839 22.6157V34.5357C36.1839 36.6477 34.4719 38.3517 32.3679 38.3517C30.2639 38.3517 28.6559 36.7517 28.5599 34.7277C28.5599 34.6637 28.5599 34.5997 28.5599 34.5277V24.6957C28.5599 24.5677 28.5599 24.4317 28.5439 24.3037V22.5997C28.5439 20.4877 30.2559 18.7837 32.3599 18.7837C33.4159 18.7837 34.3679 19.2077 35.0559 19.9037C35.7519 20.5997 36.1759 21.5517 36.1759 22.6077L36.1839 22.6157Z" fill="white"/>
<path d="M32.3677 39.1598C29.9037 39.1598 27.8797 37.2318 27.7597 34.7758V34.6718C27.7597 34.6318 27.7597 34.5838 27.7597 34.5438V24.7118C27.7597 24.6078 27.7597 24.4958 27.7437 24.3838V22.6158C27.7437 20.0718 29.8157 17.9998 32.3597 17.9998C33.5997 17.9998 34.7597 18.4798 35.6237 19.3518C36.4957 20.2238 36.9757 21.3838 36.9757 22.6158V34.5358C36.9757 37.0798 34.9037 39.1518 32.3597 39.1518L32.3677 39.1598ZM29.3597 34.7438C29.4557 36.3278 30.7677 37.5598 32.3677 37.5598C33.9677 37.5598 35.3837 36.2078 35.3837 34.5438V22.6238C35.3837 21.8158 35.0717 21.0558 34.5037 20.4878C33.9357 19.9198 33.1837 19.6078 32.3757 19.6078C30.7117 19.6078 29.3597 20.9598 29.3597 22.6238V24.3278C29.3677 24.4158 29.3757 24.5678 29.3757 24.7198V34.5518C29.3757 34.6238 29.3757 34.6878 29.3757 34.7518L29.3597 34.7438Z" fill="black"/>
<path d="M43.8161 22.6159V24.3199C43.8081 24.4479 43.8001 24.5839 43.8001 24.7119V31.9279C42.8561 32.6079 42.2321 33.7279 42.2321 34.9839V35.0799C42.2321 35.8239 42.4481 36.5119 42.8161 37.1039C42.1281 37.8719 41.1201 38.3599 40.0001 38.3599C37.8881 38.3599 36.1841 36.6479 36.1841 34.5439V22.6239C36.1841 20.5119 37.8961 18.8079 40.0001 18.8079C41.0481 18.8079 42.0001 19.2319 42.6961 19.9279C43.3921 20.6239 43.8161 21.5759 43.8161 22.6319V22.6159Z" fill="white"/>
<path d="M40.0003 39.1603C37.4563 39.1603 35.3843 37.0883 35.3843 34.5443V22.6243C35.3843 20.0803 37.4563 18.0083 40.0003 18.0083C41.2323 18.0083 42.3923 18.4883 43.2643 19.3603C44.1363 20.2323 44.6163 21.3923 44.6163 22.6243V24.3283C44.6003 24.5043 44.6003 24.6163 44.6003 24.7203V32.3523L44.2643 32.5923C43.4883 33.1443 43.0323 34.0483 43.0323 35.0003V35.0963C43.0323 35.6643 43.1923 36.2083 43.4963 36.6883L43.8163 37.2003L43.4163 37.6483C42.5523 38.6163 41.3123 39.1683 40.0003 39.1683V39.1603ZM40.0003 19.6003C38.3363 19.6003 36.9843 20.9523 36.9843 22.6163V34.5363C36.9843 36.2003 38.3363 37.5523 40.0003 37.5523C40.6643 37.5523 41.3123 37.3283 41.8243 36.9363C41.5683 36.3523 41.4323 35.7203 41.4323 35.0803V34.9843C41.4323 33.6563 42.0083 32.4003 43.0003 31.5363V24.7043C43.0003 24.5523 43.0003 24.3923 43.0243 24.2403V22.6083C43.0243 21.8003 42.7043 21.0403 42.1363 20.4723C41.5683 19.9043 40.8083 19.5923 40.0083 19.5923L40.0003 19.6003Z" fill="black"/>
<path d="M51.4314 24.7125V31.2245H45.9994C45.1834 31.2245 44.4234 31.4805 43.8154 31.9205V24.3205C44.0154 22.4005 45.6394 20.8965 47.6154 20.8965C48.6634 20.8965 49.6154 21.3205 50.3114 22.0165C51.0074 22.7125 51.4314 23.6645 51.4314 24.7205V24.7125Z" fill="white"/>
<path d="M43.0158 33.4884V24.2404C43.2638 21.8724 45.2398 20.0964 47.6158 20.0964C48.8478 20.0964 50.0078 20.5764 50.8798 21.4484C51.7518 22.3204 52.2318 23.4804 52.2318 24.7124V32.0244H45.9998C45.3678 32.0244 44.7758 32.2164 44.2798 32.5684L43.0078 33.4884H43.0158ZM44.6158 24.3684V30.6404C45.0558 30.5044 45.5198 30.4324 45.9998 30.4324H50.6318V24.7204C50.6318 23.9124 50.3198 23.1524 49.7438 22.5844C49.1758 22.0164 48.4158 21.7044 47.6158 21.7044C46.0718 21.7044 44.7918 22.8484 44.6158 24.3764V24.3684Z" fill="black"/>
<path d="M43.8003 24.7121C43.8003 24.5841 43.8003 24.4481 43.8163 24.3201V31.9201C43.8163 31.9201 43.8083 31.9201 43.8003 31.9281V24.7121Z" fill="white"/>
<path d="M43 33.864V24.712C43 24.56 43 24.4 43.016 24.248L44.616 24.32V32.72H44.144L43 33.864Z" fill="black"/>
<path d="M42.2878 45.7443C45.1838 39.4643 51.4318 40.6883 51.4318 40.6883V38.8483H45.9918C44.6558 38.8483 43.4798 38.1523 42.8078 37.0963C42.4398 36.5123 42.2238 35.8163 42.2238 35.0723V34.9763C42.2238 33.7203 42.8398 32.6003 43.7918 31.9203C43.7918 31.9203 43.7998 31.9123 43.8078 31.9123C44.4238 31.4723 45.1758 31.2163 45.9918 31.2163H55.2958C57.3758 31.2163 59.0638 32.9043 59.0638 34.9843V48.6003C58.5678 49.8723 57.9438 51.0803 57.1998 52.2083C56.9518 52.5923 56.6798 52.9683 56.4078 53.3283C52.7918 58.1043 47.0638 61.1923 40.6158 61.1923C29.6718 61.1923 20.9438 52.3203 20.9438 41.3763V34.9203C21.1438 36.8403 22.7678 38.3443 24.7438 38.3443C26.7198 38.3443 28.4478 36.7443 28.5518 34.7203C28.6478 36.7443 30.3198 38.3443 32.3598 38.3443C34.3998 38.3443 36.1758 36.6323 36.1758 34.5283C36.1758 36.6403 37.8878 38.3443 39.9918 38.3443C41.1118 38.3443 42.1198 37.8643 42.8078 37.0883C43.4798 38.1363 44.6558 38.8403 45.9918 38.8403H51.4318" fill="white"/>
<path d="M40.6156 62.0003C29.3276 62.0003 20.1436 52.7523 20.1436 41.3843V34.9283L21.7436 34.8483C21.9036 36.3923 23.1916 37.5603 24.7516 37.5603C26.3116 37.5603 27.6796 36.3043 27.7596 34.6963H29.3596C29.4396 36.3043 30.7596 37.5603 32.3676 37.5603C33.9756 37.5603 35.3836 36.2083 35.3836 34.5443H36.9836C36.9836 36.2083 38.3356 37.5603 39.9996 37.5603C40.6636 37.5603 41.3116 37.3363 41.8236 36.9443C41.5676 36.3603 41.4316 35.7283 41.4316 35.0883V34.9923C41.4316 33.5443 42.1196 32.1843 43.2796 31.3203L43.4716 31.1283H43.5596C44.2796 30.6643 45.1196 30.4163 45.9996 30.4163H55.3036C57.8236 30.4163 59.8716 32.4643 59.8716 34.9843V48.7523L59.8156 48.8963C59.2956 50.2163 58.6476 51.4723 57.8796 52.6483C57.6316 53.0323 57.3516 53.4323 57.0476 53.8243C53.1116 59.0163 47.1276 62.0003 40.6156 62.0003ZM21.7436 38.0643V41.3923C21.7436 51.8723 30.2076 60.4083 40.6156 60.4083C46.6156 60.4083 52.1436 57.6563 55.7756 52.8643C56.0476 52.5043 56.3036 52.1443 56.5356 51.7843C57.2156 50.7363 57.7996 49.6243 58.2716 48.4563V34.9923C58.2716 33.3523 56.9436 32.0243 55.3036 32.0243H45.9996C45.3676 32.0243 44.7756 32.2163 44.2796 32.5683L44.1836 32.6323C43.4556 33.1923 43.0236 34.0643 43.0236 34.9843V35.0803C43.0236 35.6483 43.1836 36.1923 43.4876 36.6723C44.0396 37.5363 44.9756 38.0483 45.9996 38.0483H52.2396V41.4883L51.2796 41.4723C51.0556 41.4243 45.6076 40.4643 43.0156 46.0803L41.5596 45.4083C43.9836 40.1603 48.6316 39.7283 50.6316 39.8083V39.6483H45.9916C44.7356 39.6483 43.5676 39.1443 42.7116 38.2643C41.9356 38.8403 40.9836 39.1523 39.9916 39.1523C38.4076 39.1523 37.0076 38.3523 36.1756 37.1283C35.3436 38.3523 33.9436 39.1523 32.3596 39.1523C30.7756 39.1523 29.3836 38.3603 28.5516 37.1443C27.7196 38.3603 26.3196 39.1523 24.7436 39.1523C23.5996 39.1523 22.5516 38.7443 21.7436 38.0483V38.0643Z" fill="black"/>
<path d="M28.5674 24.7121V34.5441C28.5674 34.6161 28.5674 34.6801 28.5674 34.7441C28.4634 36.7681 26.7994 38.3681 24.7594 38.3681C22.7194 38.3681 21.1594 36.8641 20.9594 34.9441C20.9514 34.8161 20.9434 34.6801 20.9434 34.5521V24.7201C20.9434 24.5921 20.9434 24.4561 20.9594 24.3281C21.1594 22.4081 22.7834 20.9041 24.7594 20.9041C25.8154 20.9041 26.7674 21.3281 27.4554 22.0241C28.0634 22.6321 28.4634 23.4401 28.5594 24.3361C28.5674 24.4641 28.5754 24.6001 28.5754 24.7281L28.5674 24.7121Z" fill="white"/>
<path d="M24.7519 39.1604C22.3759 39.1604 20.3999 37.3764 20.1519 35.0164C20.1359 34.8484 20.1279 34.6964 20.1279 34.5444V24.7124C20.1279 24.5604 20.1279 24.4004 20.1519 24.2484C20.3999 21.8724 22.3759 20.0884 24.7519 20.0884C25.9919 20.0884 27.1519 20.5684 28.0159 21.4404C28.7679 22.1924 29.2399 23.1844 29.3439 24.2324C29.3599 24.4004 29.3679 24.5524 29.3679 24.7044V34.5364C29.3679 34.6324 29.3679 34.7204 29.3599 34.8004C29.2399 37.2244 27.2159 39.1524 24.7519 39.1524V39.1604ZM24.7519 21.6884C23.1999 21.6884 21.9039 22.8564 21.7439 24.4004C21.7359 24.4964 21.7279 24.6004 21.7279 24.7124V34.5444C21.7279 34.6484 21.7279 34.7604 21.7439 34.8644C21.9039 36.4004 23.1919 37.5684 24.7519 37.5684C26.3119 37.5684 27.6799 36.3124 27.7599 34.7044C27.7599 34.6324 27.7599 34.5924 27.7599 34.5444V24.7124C27.7599 24.6084 27.7599 24.4964 27.7439 24.3844C27.6719 23.7124 27.3679 23.0644 26.8719 22.5764C26.3039 22.0084 25.5519 21.6964 24.7439 21.6964L24.7519 21.6884Z" fill="black"/>
</svg>
