<svg width="303" height="310" viewBox="0 0 303 310" fill="none" xmlns="http://www.w3.org/2000/svg">
<path d="M152.238 309.513H151.781C151.633 309.424 135.771 301.922 115.346 288.069C96.5004 275.279 69.7981 254.322 49.6237 227.043C40.334 214.475 32.6099 200.459 26.658 185.439C19.111 183.032 12.3321 178.188 7.56171 171.793C2.61411 165.161 0 157.275 0 149.004C0 138.474 4.46023 128.283 12.2287 121.046C8.34447 71.5261 19.7904 31.4431 19.9086 31.0296L19.9381 30.9114H20.0563L47.2902 35.4603C48.5603 35.5341 49.9043 35.5637 51.2631 35.5637C72.2793 35.5637 98.4794 25.89 116.763 17.7818C136.569 8.9943 151.603 0.0886138 151.751 0H152.283C152.43 0.0886138 167.465 8.9943 187.285 17.7966C205.569 25.9048 231.755 35.5784 252.786 35.5784C254.144 35.5784 255.473 35.5489 256.758 35.475L284.096 30.9262L284.125 31.0444C284.243 31.4431 295.807 72.0135 291.731 121.933C298.998 129.169 303 138.784 303 149.004C303 165.117 292.78 179.576 277.538 184.996C271.572 200.208 263.788 214.357 254.395 227.043C234.236 254.322 207.519 275.279 188.688 288.069C168.263 301.922 152.401 309.424 152.238 309.498H152.209L152.238 309.513Z" fill="white"/>
<path d="M273.743 60.6561L271.69 48.9443L259.979 50.9381C230.145 56.0186 176.608 31.4579 158.501 21.5627L152.756 18.4316L147.04 21.5627C128.948 31.4579 75.4995 56.063 45.5628 50.9381L33.8362 48.9443L31.7981 60.6561C27.5299 85.0101 26.5994 107.976 28.9034 129.524C22.3017 133.644 17.8857 140.955 17.8857 149.285C17.8857 162.119 28.3422 172.575 41.1912 172.575C54.0402 172.575 64.4818 162.119 64.4818 149.285C64.4818 140.822 59.933 133.423 53.1688 129.347C51.0125 112.377 51.1454 94.4179 53.6414 75.4694H54.0254C90.357 75.4694 136.643 53.6852 152.756 45.5179C168.854 53.6852 215.17 75.4694 251.486 75.4694H251.87C253.879 90.7109 254.352 105.303 253.347 119.274H277.45C278.528 100.724 277.332 81.1997 273.743 60.6561ZM41.1912 161.617C34.3974 161.617 28.8738 156.093 28.8738 149.299C28.8738 142.506 34.3974 136.982 41.1912 136.982C47.9849 136.982 53.5085 142.491 53.5085 149.299C53.5085 156.108 47.9849 161.617 41.1912 161.617Z" fill="#00479C"/>
<path d="M286.621 149.3C286.621 136.451 276.179 125.994 263.33 125.994C250.481 125.994 240.039 136.451 240.039 149.3C240.039 154.646 241.871 159.549 244.898 163.493L241.531 171.542L237.765 179.768C221.578 213.796 193.207 242.477 152.769 265.576C112.347 242.477 83.9756 213.796 67.7741 179.768H41.1899C59.0013 224.311 94.3434 261.086 147.069 289.723L152.769 292.824L158.47 289.723C211.181 261.086 246.538 224.311 264.349 179.768L267.436 172.221C278.335 170.271 286.635 160.746 286.635 149.314L286.621 149.3ZM263.33 161.617C256.536 161.617 251.013 156.093 251.013 149.3C251.013 142.506 256.536 136.982 263.33 136.982C270.124 136.982 275.647 142.491 275.647 149.3C275.647 156.108 270.124 161.617 263.33 161.617Z" fill="#717171"/>
<path d="M233.424 106.824H73.3428V107.681H233.424V106.824Z" fill="#00479C"/>
<path d="M229.672 107.134C229.672 105.524 230.986 104.21 232.596 104.21C234.206 104.21 235.535 105.524 235.535 107.134C235.535 108.744 234.221 110.058 232.596 110.058C230.972 110.058 229.672 108.744 229.672 107.134Z" fill="#00479C"/>
<path d="M70.832 107.134C70.832 105.524 72.1317 104.21 73.7563 104.21C75.3809 104.21 76.6805 105.524 76.6805 107.134C76.6805 108.744 75.3661 110.058 73.7563 110.058C72.1465 110.058 70.832 108.744 70.832 107.134Z" fill="#00479C"/>
<path d="M73.5039 119.378H91.2267L98.0647 145.918L104.858 119.378H122.581V163.005H111.534V129.746L103.027 163.005H93.0285L84.5363 129.746V163.005H73.5039V119.378Z" fill="#00479C"/>
<path d="M154.688 119.378H168.142V145.371C168.142 147.956 167.744 150.393 166.931 152.682C166.134 154.971 164.879 156.965 163.165 158.693C161.437 160.406 159.65 161.617 157.76 162.311C155.131 163.286 151.985 163.773 148.323 163.773C146.196 163.773 143.877 163.626 141.381 163.33C138.87 163.035 136.758 162.444 135.075 161.558C133.391 160.672 131.855 159.431 130.452 157.807C129.049 156.167 128.104 154.499 127.587 152.771C126.745 149.994 126.332 147.542 126.332 145.401V119.407H139.786V146.021C139.786 148.399 140.436 150.26 141.765 151.589C143.08 152.933 144.911 153.598 147.244 153.598C149.578 153.598 151.394 152.933 152.709 151.619C154.038 150.304 154.688 148.443 154.688 146.021V119.407V119.378Z" fill="#00479C"/>
<path d="M172.721 119.378H186.235V163.005H172.721V119.378Z" fill="#00479C"/>
<path d="M191.124 119.378H203.707L220.13 143.51V119.378H232.831V163.005H220.13L203.795 139.05V163.005H191.124V119.378Z" fill="#00479C"/>
<path d="M222.524 183.785C219.319 183.785 216.705 181.186 216.705 177.981C216.705 174.776 219.319 172.177 222.524 172.177C225.729 172.177 228.313 174.776 228.313 177.981C228.313 181.186 225.714 183.785 222.524 183.785ZM222.524 173.063C219.792 173.063 217.591 175.278 217.591 177.996C217.591 180.713 219.792 182.914 222.524 182.914C225.256 182.914 227.442 180.713 227.442 177.996C227.442 175.278 225.227 173.063 222.524 173.063Z" fill="#00479C"/>
<path d="M224.991 181.112H223.942L222.687 178.616H221.564V181.112H220.648V175.175H222.952C223.322 175.175 223.647 175.249 223.927 175.396C224.208 175.559 224.429 175.751 224.577 176.017C224.725 176.282 224.799 176.578 224.799 176.918C224.799 177.331 224.68 177.671 224.459 177.937C224.237 178.202 223.957 178.394 223.602 178.498L224.961 181.127L224.991 181.112ZM223.898 176.918C223.898 176.637 223.809 176.415 223.632 176.238C223.455 176.061 223.203 175.987 222.893 175.987H221.564V177.833H222.893C223.203 177.833 223.455 177.759 223.632 177.582C223.809 177.42 223.898 177.198 223.898 176.903V176.918Z" fill="#00479C"/>
<path d="M122.612 99.4692V92.3506H114.519V89.6774H133.822V92.3506H125.684V99.4692H122.597H122.612ZM117.192 87.7131V78.3496H131.252V87.7131H117.192ZM128.165 81.0228H120.278V85.0399H128.165V81.0228Z" fill="#00479C"/>
<path d="M134.738 83.9173C134.738 83.0902 134.871 82.337 135.166 81.6281C135.432 80.9487 135.816 80.3432 136.303 79.8263C136.776 79.3241 137.352 78.9254 138.031 78.6448C138.696 78.3789 139.434 78.246 140.232 78.246C141.029 78.246 141.768 78.3937 142.447 78.6448C143.112 78.9254 143.688 79.3241 144.175 79.7967C144.663 80.3137 145.047 80.9044 145.327 81.5986C145.593 82.3075 145.755 83.0902 145.755 83.9173C145.755 84.7443 145.593 85.5271 145.327 86.2065C145.032 86.9154 144.663 87.5357 144.175 88.0083C143.688 88.5252 143.112 88.9092 142.447 89.1603C141.753 89.4409 141.029 89.5886 140.232 89.5886C139.434 89.5886 138.696 89.4409 138.031 89.1603C137.337 88.8944 136.761 88.5252 136.303 88.0083C135.816 87.5061 135.432 86.9154 135.166 86.2065C134.871 85.5271 134.738 84.7591 134.738 83.9173ZM137.647 99.1145V91.3313H140.734V96.4414H152.18V99.1145H137.647ZM142.669 83.9173C142.669 83.0902 142.477 82.3813 142.093 81.8201C141.694 81.2589 141.074 80.9635 140.232 80.9635C139.434 80.9635 138.829 81.2441 138.43 81.8201C138.031 82.3813 137.825 83.0902 137.825 83.9025C137.825 84.7591 138.031 85.468 138.43 86.0292C138.829 86.5905 139.434 86.8858 140.232 86.8858C141.074 86.8858 141.694 86.6052 142.093 86.0292C142.477 85.468 142.669 84.7739 142.669 83.932V83.9173ZM151.84 93.7534H148.754V77.3008H151.84V93.7534Z" fill="#00479C"/>
<path d="M154.262 79.5012H164.216V80.5498C164.216 82.204 163.995 83.7695 163.567 85.2316C163.123 86.7233 162.474 88.0968 161.661 89.3226C160.819 90.6075 159.815 91.7299 158.634 92.749C157.437 93.7828 156.079 94.6837 154.572 95.4517L153.021 93.0444C154.085 92.5275 155.119 91.8629 156.064 91.1096C156.994 90.3564 157.821 89.5294 158.53 88.5841C159.239 87.6832 159.815 86.6642 160.258 85.586C160.701 84.5227 160.952 83.3855 161.041 82.204H154.262V79.5308V79.5012ZM170.065 85.3941H173.107V88.0672H170.065V99.3655H166.978V77.3154H170.065V85.3941Z" fill="#00479C"/>
<path d="M172.501 96.5154V93.8422H191.834V96.5154H172.501ZM189.338 89.825H175.159V78.9551H189.116V81.6283H178.246V87.1666H189.338V89.8398V89.825Z" fill="#00479C"/>
<path d="M103.87 188.806V183.534H115.98V194.345C113.662 195.925 111.609 197.003 109.822 197.579C108.035 198.155 105.923 198.436 103.486 198.436C100.473 198.436 98.0214 197.919 96.1162 196.9C94.211 195.866 92.7489 194.345 91.7003 192.307C90.6517 190.268 90.1348 187.95 90.1348 185.321C90.1348 182.544 90.7108 180.137 91.848 178.099C92.9852 176.046 94.6688 174.495 96.8694 173.432C98.5826 172.62 100.901 172.206 103.811 172.206C106.72 172.206 108.714 172.457 110.102 172.974C111.491 173.476 112.643 174.274 113.558 175.337C114.474 176.4 115.168 177.759 115.626 179.399L108.064 180.743C107.754 179.783 107.222 179.059 106.484 178.542C105.746 178.04 104.786 177.774 103.634 177.774C101.92 177.774 100.547 178.365 99.5278 179.561C98.5088 180.757 97.9919 182.648 97.9919 185.232C97.9919 187.979 98.5088 189.944 99.5426 191.11C100.576 192.277 102.009 192.883 103.855 192.883C104.726 192.883 105.568 192.75 106.366 192.499C107.163 192.248 108.079 191.819 109.098 191.199V188.806H103.855H103.87Z" fill="#00479C"/>
<path d="M134.309 172.619H142.136V187.743C142.136 189.234 141.9 190.652 141.442 191.996C140.97 193.325 140.246 194.492 139.242 195.496C138.237 196.486 137.204 197.195 136.096 197.593C134.575 198.155 132.743 198.435 130.617 198.435C129.376 198.435 128.032 198.347 126.57 198.169C125.108 197.992 123.897 197.653 122.907 197.136C121.932 196.619 121.032 195.895 120.219 194.95C119.407 194.005 118.846 193.03 118.55 192.026C118.063 190.416 117.827 188.983 117.827 187.743V172.619H125.654V188.097C125.654 189.485 126.038 190.563 126.806 191.346C127.574 192.129 128.638 192.513 129.996 192.513C131.355 192.513 132.404 192.129 133.172 191.361C133.94 190.593 134.324 189.515 134.324 188.097V172.619H134.309Z" fill="#00479C"/>
<path d="M158.884 193.813H149.978L148.738 198.008H140.733L150.274 172.635H158.825L168.366 198.008H160.154L158.884 193.813ZM157.259 188.334L154.453 179.207L151.677 188.334H157.245H157.259Z" fill="#00479C"/>
<path d="M168.115 197.992V172.619H181.185C183.607 172.619 185.454 172.826 186.738 173.239C188.023 173.653 189.057 174.421 189.84 175.543C190.623 176.666 191.021 178.039 191.021 179.649C191.021 181.052 190.726 182.278 190.121 183.297C189.515 184.316 188.688 185.143 187.639 185.778C186.975 186.177 186.044 186.517 184.892 186.783C185.823 187.093 186.502 187.403 186.93 187.713C187.211 187.92 187.639 188.363 188.186 189.042C188.732 189.722 189.101 190.253 189.279 190.623L193.074 197.977H184.213L180.019 190.224C179.487 189.219 179.014 188.57 178.601 188.274C178.039 187.875 177.39 187.683 176.681 187.683H175.987V197.977H168.115V197.992ZM175.987 182.898H179.295C179.649 182.898 180.343 182.78 181.377 182.559C181.894 182.455 182.323 182.189 182.647 181.761C182.972 181.333 183.135 180.845 183.135 180.284C183.135 179.472 182.869 178.837 182.352 178.394C181.835 177.951 180.86 177.729 179.428 177.729H175.987V182.884V182.898Z" fill="#00479C"/>
<path d="M192.853 172.619H204.505C206.794 172.619 208.655 172.929 210.073 173.55C211.491 174.17 212.658 175.071 213.573 176.238C214.489 177.404 215.168 178.763 215.582 180.299C215.995 181.85 216.202 183.489 216.202 185.217C216.202 187.935 215.892 190.032 215.272 191.523C214.652 193.015 213.795 194.27 212.702 195.275C211.609 196.279 210.428 196.958 209.172 197.298C207.459 197.756 205.894 197.992 204.505 197.992H192.853V172.619ZM200.695 178.364V192.232H202.615C204.254 192.232 205.421 192.055 206.115 191.686C206.809 191.317 207.356 190.682 207.74 189.781C208.138 188.88 208.33 187.403 208.33 185.38C208.33 182.692 207.887 180.845 207.016 179.856C206.145 178.866 204.682 178.364 202.659 178.364H200.71H200.695Z" fill="#00479C"/>
</svg>
