<svg width="44" height="44" viewBox="0 0 44 44" fill="none" xmlns="http://www.w3.org/2000/svg">
<path d="M21.9998 42.6131C33.3841 42.6131 42.6129 33.3843 42.6129 22C42.6129 10.6158 33.3841 1.38696 21.9998 1.38696C10.6155 1.38696 1.38672 10.6158 1.38672 22C1.38672 33.3843 10.6155 42.6131 21.9998 42.6131Z" fill="#00479C" stroke="black" stroke-width="2" stroke-miterlimit="10"/>
<path d="M22.0001 35.5923C29.5069 35.5923 35.5924 29.5068 35.5924 21.9999C35.5924 14.4931 29.5069 8.40759 22.0001 8.40759C14.4932 8.40759 8.40771 14.4931 8.40771 21.9999C8.40771 29.5068 14.4932 35.5923 22.0001 35.5923Z" fill="white" stroke="black" stroke-width="2" stroke-miterlimit="10"/>
<path d="M16.7502 14.5714H22.8831C27.0387 14.5714 29.4702 16.8841 29.4702 20.41C29.4702 23.9358 27.0387 26.2898 22.8831 26.2898H20.3174V30.5436H16.7502V14.5714ZM22.7282 23.1357C24.7054 23.1357 25.903 22.1961 25.903 20.41C25.903 18.6238 24.7054 17.7256 22.7282 17.7256H20.3174V23.1357H22.7282Z" fill="#F9C900"/>
</svg>
