<svg width="60" height="50" viewBox="0 0 60 50" fill="none" xmlns="http://www.w3.org/2000/svg">
<path d="M0 5C0 2.23858 2.23858 0 5 0H55C57.7614 0 60 2.23858 60 5V20H0V5Z" fill="#00479C"/>
<path d="M58 22V44C58 46.21 56.21 48 54 48H2V22H58ZM60 20H0V50H54C57.31 50 60 47.31 60 44V20Z" fill="#C0DDFF"/>
<path d="M13.065 45.4402H13.035C13.035 45.4402 11.9745 44.94 10.6238 44.0195C9.38319 43.1791 7.61231 41.7884 6.28164 39.9875C5.67134 39.1571 5.16108 38.2366 4.76088 37.2361C4.26063 37.076 3.81041 36.7559 3.50025 36.3357C3.17009 35.8954 3 35.3752 3 34.8349C3 34.1346 3.29015 33.4642 3.81041 32.994C3.55028 29.7224 4.31066 27.081 4.32066 27.051H4.33067L6.13157 27.3412C6.21161 27.3412 6.30165 27.3412 6.3917 27.3412C7.78239 27.3412 9.51326 26.7009 10.7139 26.1706C12.0245 25.5903 13.015 25 13.025 25H13.065C13.065 25 14.0655 25.5903 15.3762 26.1706C16.5868 26.7109 18.3177 27.3412 19.6983 27.3412C19.7884 27.3412 19.8784 27.3412 19.9585 27.3412L21.7594 27.041C21.7594 27.041 22.5298 29.7524 22.2596 33.054C22.7399 33.5343 23 34.1646 23 34.8449C23 35.9055 22.3197 36.8659 21.3192 37.2261C20.929 38.2266 20.4087 39.1671 19.7884 40.0075C18.4577 41.8084 16.6968 43.1891 15.4462 44.0395C14.0955 44.95 13.045 45.4502 13.035 45.4502L13.065 45.4402Z" fill="white"/>
<path d="M21.0894 29.0123L20.9493 28.242L20.1789 28.372C18.2079 28.7122 14.6762 27.0814 13.4756 26.4311L13.0954 26.2209L12.7152 26.4311C11.5246 27.0814 7.99282 28.7122 6.01183 28.372L5.24144 28.242L5.11138 29.0123C4.83124 30.6231 4.77121 32.1339 4.92128 33.5646C4.48106 33.8348 4.19092 34.315 4.19092 34.8653C4.19092 35.7157 4.88126 36.406 5.73169 36.406C6.58211 36.406 7.27246 35.7157 7.27246 34.8653C7.27246 34.305 6.97231 33.8147 6.52208 33.5446C6.38201 32.424 6.39202 31.2335 6.5521 29.9828H6.57211C8.97331 29.9828 12.0248 28.5421 13.0954 28.0018C14.1559 28.5421 17.2174 29.9828 19.6186 29.9828H19.6486C19.7787 30.9933 19.8087 31.9538 19.7487 32.8743H21.3395C21.4095 31.6537 21.3395 30.363 21.0994 29.0023L21.0894 29.0123ZM5.73169 35.6757C5.28146 35.6757 4.92128 35.3155 4.92128 34.8653C4.92128 34.415 5.28146 34.0549 5.73169 34.0549C6.18191 34.0549 6.54209 34.415 6.54209 34.8653C6.54209 35.3155 6.17191 35.6757 5.73169 35.6757Z" fill="#00479C"/>
<path d="M21.94 34.8647C21.94 34.0143 21.2497 33.324 20.3993 33.324C19.5488 33.324 18.8585 34.0143 18.8585 34.8647C18.8585 35.2149 18.9786 35.5451 19.1787 35.8052L18.9585 36.3355L18.7084 36.8757C17.6379 39.1269 15.767 41.0178 13.0956 42.5386C10.4243 41.0178 8.55334 39.1169 7.48281 36.8757H5.73193C6.91252 39.8172 9.24369 42.2484 12.7254 44.1394L13.1056 44.3395L13.4858 44.1394C16.9676 42.2484 19.2987 39.8172 20.4793 36.8757L20.6794 36.3755C21.3998 36.2454 21.95 35.6151 21.95 34.8647H21.94ZM20.3993 35.6751C19.949 35.6751 19.5889 35.315 19.5889 34.8647C19.5889 34.4145 19.949 34.0543 20.3993 34.0543C20.8495 34.0543 21.2097 34.4145 21.2097 34.8647C21.2097 35.315 20.8495 35.6751 20.3993 35.6751Z" fill="#717171"/>
<path d="M18.4288 32.0635H7.85352V32.1235H18.4288V32.0635Z" fill="#00479C"/>
<path d="M18.1792 32.0836C18.1792 31.9736 18.2692 31.8936 18.3692 31.8936C18.4692 31.8936 18.5592 31.9836 18.5592 32.0836C18.5592 32.1836 18.4692 32.2736 18.3692 32.2736C18.2692 32.2736 18.1792 32.1836 18.1792 32.0836Z" fill="#00479C"/>
<path d="M7.69336 32.0836C7.69336 31.9736 7.78336 31.8936 7.88336 31.8936C7.98336 31.8936 8.07336 31.9836 8.07336 32.0836C8.07336 32.1836 7.98336 32.2736 7.88336 32.2736C7.78336 32.2736 7.69336 32.1836 7.69336 32.0836Z" fill="#00479C"/>
<path d="M7.86328 32.894H9.03387L9.48409 34.6449L9.93432 32.894H11.1049V35.7755H10.3745V33.5744L9.81426 35.7755H9.15393L8.59365 33.5744V35.7755H7.86328V32.894Z" fill="#00479C"/>
<path d="M13.2266 32.894H14.1171V34.6149C14.1171 34.785 14.0871 34.9451 14.037 35.0951C13.987 35.2452 13.897 35.3753 13.7869 35.4953C13.6769 35.6054 13.5568 35.6854 13.4267 35.7355C13.2567 35.7955 13.0466 35.8355 12.8064 35.8355C12.6664 35.8355 12.5163 35.8355 12.3462 35.8055C12.1761 35.7855 12.0461 35.7455 11.926 35.6854C11.8159 35.6254 11.7159 35.5454 11.6158 35.4353C11.5258 35.3253 11.4558 35.2152 11.4257 35.1051C11.3657 34.9251 11.3457 34.755 11.3457 34.6149V32.894H12.2361V34.6549C12.2361 34.815 12.2762 34.9351 12.3662 35.0251C12.4563 35.1152 12.5763 35.1552 12.7264 35.1552C12.8765 35.1552 12.9965 35.1152 13.0866 35.0251C13.1766 34.9351 13.2166 34.815 13.2166 34.6549V32.894H13.2266Z" fill="#00479C"/>
<path d="M14.4165 32.894H15.3069V35.7755H14.4165V32.894Z" fill="#00479C"/>
<path d="M15.637 32.894H16.4674L17.5479 34.4848V32.894H18.3883V35.7755H17.5479L16.4674 34.1947V35.7755H15.627V32.894H15.637Z" fill="#00479C"/>
<path d="M17.7076 37.1455C17.4976 37.1455 17.3276 36.9755 17.3276 36.7655C17.3276 36.5555 17.4976 36.3855 17.7076 36.3855C17.9176 36.3855 18.0876 36.5555 18.0876 36.7655C18.0876 36.9755 17.9176 37.1455 17.7076 37.1455ZM17.7076 36.4355C17.5276 36.4355 17.3776 36.5855 17.3776 36.7655C17.3776 36.9455 17.5276 37.0855 17.7076 37.0855C17.8876 37.0855 18.0276 36.9355 18.0276 36.7655C18.0276 36.5955 17.8776 36.4355 17.7076 36.4355Z" fill="#00479C"/>
<path d="M17.8674 36.9657H17.7974L17.7174 36.7957H17.6474V36.9657H17.5874V36.5757H17.7374C17.7374 36.5757 17.7874 36.5757 17.7974 36.5857C17.8174 36.5957 17.8274 36.6057 17.8374 36.6257C17.8374 36.6457 17.8474 36.6657 17.8474 36.6857C17.8474 36.7157 17.8474 36.7357 17.8274 36.7557C17.8174 36.7757 17.7974 36.7857 17.7674 36.7957L17.8574 36.9657H17.8674ZM17.7974 36.6857C17.7974 36.6857 17.7974 36.6557 17.7774 36.6357C17.7674 36.6257 17.7474 36.6157 17.7274 36.6157H17.6374V36.7357H17.7274C17.7274 36.7357 17.7674 36.7357 17.7774 36.7157C17.7874 36.7057 17.7974 36.6857 17.7974 36.6757V36.6857Z" fill="#00479C"/>
<path d="M11.114 31.5724V31.1024H10.584V30.9224H11.854V31.1024H11.314V31.5724H11.114ZM10.754 30.7924V30.1724H11.684V30.7924H10.754ZM11.474 30.3524H10.954V30.6224H11.474V30.3524Z" fill="#00479C"/>
<path d="M11.9146 30.5523C11.9146 30.5023 11.9146 30.4523 11.9446 30.4023C11.9646 30.3523 11.9846 30.3223 12.0146 30.2823C12.0446 30.2523 12.0846 30.2223 12.1246 30.2023C12.1646 30.1823 12.2146 30.1723 12.2746 30.1723C12.3346 30.1723 12.3746 30.1723 12.4246 30.2023C12.4646 30.2223 12.5046 30.2523 12.5346 30.2823C12.5646 30.3123 12.5946 30.3523 12.6146 30.4023C12.6346 30.4523 12.6446 30.5023 12.6446 30.5523C12.6446 30.6023 12.6346 30.6623 12.6146 30.7023C12.5946 30.7523 12.5746 30.7923 12.5346 30.8223C12.5046 30.8523 12.4646 30.8823 12.4246 30.9023C12.3746 30.9223 12.3346 30.9323 12.2746 30.9323C12.2146 30.9323 12.1746 30.9323 12.1246 30.9023C12.0746 30.8823 12.0446 30.8623 12.0146 30.8223C11.9846 30.7923 11.9546 30.7523 11.9446 30.7023C11.9246 30.6523 11.9146 30.6023 11.9146 30.5523ZM12.1046 31.5523V31.0423H12.3046V31.3823H13.0646V31.5623H12.1046V31.5523ZM12.4346 30.5523C12.4346 30.5023 12.4246 30.4523 12.3946 30.4123C12.3646 30.3723 12.3246 30.3523 12.2746 30.3523C12.2246 30.3523 12.1846 30.3723 12.1546 30.4123C12.1246 30.4523 12.1146 30.4923 12.1146 30.5523C12.1146 30.6123 12.1246 30.6523 12.1546 30.6923C12.1846 30.7323 12.2246 30.7523 12.2746 30.7523C12.3346 30.7523 12.3746 30.7323 12.3946 30.6923C12.4146 30.6523 12.4346 30.6123 12.4346 30.5523ZM13.0446 31.2023H12.8446V30.1123H13.0446V31.2023Z" fill="#00479C"/>
<path d="M13.1952 30.2523H13.8552V30.3223C13.8552 30.4323 13.8452 30.5323 13.8152 30.6323C13.7852 30.7323 13.7452 30.8223 13.6852 30.9023C13.6252 30.9823 13.5652 31.0623 13.4852 31.1323C13.4052 31.2023 13.3152 31.2623 13.2152 31.3123L13.1152 31.1523C13.1852 31.1223 13.2552 31.0723 13.3152 31.0223C13.3752 30.9723 13.4352 30.9223 13.4752 30.8523C13.5252 30.7923 13.5652 30.7223 13.5852 30.6523C13.6152 30.5823 13.6352 30.5023 13.6352 30.4323H13.1852V30.2523H13.1952ZM14.2352 30.6423H14.4352V30.8223H14.2352V31.5723H14.0352V30.1123H14.2352V30.6423Z" fill="#00479C"/>
<path d="M14.4062 31.3824V31.2024H15.6863V31.3824H14.4062ZM15.5163 30.9424H14.5763V30.2224H15.4963V30.4024H14.7762V30.7724H15.5063V30.9524L15.5163 30.9424Z" fill="#00479C"/>
<path d="M9.87289 37.4757V37.1257H10.6729V37.8357C10.5229 37.9357 10.3829 38.0157 10.2629 38.0457C10.1429 38.0857 10.0029 38.1057 9.84289 38.1057C9.64289 38.1057 9.48289 38.0757 9.35289 38.0057C9.22289 37.9357 9.13289 37.8357 9.06289 37.7057C8.99289 37.5757 8.96289 37.4157 8.96289 37.2457C8.96289 37.0657 9.00289 36.9057 9.07289 36.7657C9.15289 36.6257 9.26289 36.5257 9.40289 36.4557C9.51289 36.4057 9.67289 36.3757 9.86289 36.3757C10.0529 36.3757 10.1829 36.3957 10.2829 36.4257C10.3729 36.4557 10.4529 36.5157 10.5129 36.5857C10.5729 36.6557 10.6229 36.7457 10.6529 36.8557L10.1529 36.9457C10.1329 36.8857 10.0929 36.8357 10.0529 36.7957C10.0029 36.7657 9.94289 36.7457 9.86289 36.7457C9.75289 36.7457 9.66289 36.7857 9.59289 36.8657C9.52289 36.9457 9.49289 37.0657 9.49289 37.2357C9.49289 37.4157 9.52289 37.5457 9.59289 37.6257C9.66289 37.7057 9.75289 37.7457 9.88289 37.7457C9.94289 37.7457 9.99289 37.7457 10.0529 37.7157C10.1029 37.6957 10.1629 37.6657 10.2329 37.6257V37.4657H9.88289L9.87289 37.4757Z" fill="#00479C"/>
<path d="M11.8842 36.4053H12.4042V37.4053C12.4042 37.5053 12.3842 37.5953 12.3542 37.6853C12.3242 37.7753 12.2742 37.8453 12.2042 37.9153C12.1342 37.9853 12.0742 38.0253 11.9942 38.0553C11.8942 38.0953 11.7742 38.1153 11.6342 38.1153C11.5542 38.1153 11.4642 38.1153 11.3642 38.0953C11.2642 38.0853 11.1842 38.0653 11.1242 38.0253C11.0642 37.9953 11.0042 37.9453 10.9442 37.8853C10.8942 37.8253 10.8542 37.7553 10.8342 37.6953C10.8042 37.5853 10.7842 37.4953 10.7842 37.4153V36.4153H11.3042V37.4353C11.3042 37.5253 11.3342 37.5953 11.3842 37.6453C11.4342 37.6953 11.5042 37.7253 11.5942 37.7253C11.6842 37.7253 11.7542 37.6953 11.8042 37.6453C11.8542 37.5953 11.8842 37.5253 11.8842 37.4253V36.4053Z" fill="#00479C"/>
<path d="M13.5047 37.8055H12.9147L12.8347 38.0855H12.3047L12.9347 36.4155H13.4947L14.1247 38.0855H13.5847L13.5047 37.8055ZM13.3947 37.4455L13.2147 36.8455L13.0347 37.4455H13.4047H13.3947Z" fill="#00479C"/>
<path d="M14.115 38.0753V36.4053H14.975C15.135 36.4053 15.255 36.4153 15.345 36.4453C15.425 36.4753 15.495 36.5253 15.545 36.5953C15.595 36.6653 15.625 36.7553 15.625 36.8653C15.625 36.9553 15.605 37.0353 15.565 37.1053C15.525 37.1753 15.475 37.2253 15.405 37.2653C15.365 37.2953 15.305 37.3153 15.225 37.3353C15.285 37.3553 15.335 37.3753 15.355 37.3953C15.375 37.4053 15.405 37.4353 15.435 37.4853C15.475 37.5253 15.495 37.5653 15.505 37.5853L15.755 38.0753H15.175L14.895 37.5653C14.855 37.4953 14.825 37.4553 14.805 37.4353C14.765 37.4053 14.725 37.3953 14.675 37.3953H14.625V38.0753H14.105H14.115ZM14.635 37.0753H14.855C14.855 37.0753 14.925 37.0753 14.995 37.0553C15.025 37.0553 15.055 37.0353 15.075 37.0053C15.095 36.9753 15.105 36.9453 15.105 36.9053C15.105 36.8553 15.085 36.8053 15.055 36.7853C15.025 36.7553 14.955 36.7453 14.865 36.7453H14.635V37.0853V37.0753Z" fill="#00479C"/>
<path d="M15.7466 36.4053H16.5166C16.6666 36.4053 16.7866 36.4253 16.8866 36.4653C16.9766 36.5053 17.0566 36.5653 17.1166 36.6453C17.1766 36.7253 17.2266 36.8153 17.2466 36.9153C17.2766 37.0153 17.2866 37.1253 17.2866 37.2353C17.2866 37.4153 17.2666 37.5553 17.2266 37.6553C17.1866 37.7553 17.1266 37.8353 17.0566 37.9053C16.9866 37.9753 16.9066 38.0153 16.8266 38.0353C16.7166 38.0653 16.6066 38.0853 16.5166 38.0853H15.7466V36.4153V36.4053ZM16.2666 36.7853V37.6953H16.3966C16.5066 37.6953 16.5866 37.6853 16.6266 37.6553C16.6766 37.6353 16.7066 37.5853 16.7366 37.5253C16.7666 37.4653 16.7766 37.3653 16.7766 37.2353C16.7766 37.0553 16.7466 36.9353 16.6866 36.8753C16.6266 36.8053 16.5366 36.7753 16.3966 36.7753H16.2666V36.7853Z" fill="#00479C"/>
<path d="M24 20H60V44C60 47.31 57.31 50 54 50H24V20Z" fill="#C0DDFF"/>
<path d="M9.92078 7.24H5.34078V6.01H6.83078V5.37H8.51078V6.01H9.92078V7.24ZM11.8008 10.47H10.2708V5.54H11.8008V7.24H12.4908V5.5H14.0408V10.77H12.4908V8.74H11.8008V10.47ZM9.80078 9.04C9.80078 9.36 9.70745 9.64333 9.52078 9.89C9.33411 10.13 9.08078 10.3167 8.76078 10.45C8.44078 10.5767 8.08411 10.64 7.69078 10.64C7.29745 10.64 6.94078 10.5767 6.62078 10.45C6.30078 10.3167 6.04745 10.13 5.86078 9.89C5.67411 9.64333 5.58078 9.36 5.58078 9.04C5.58078 8.72 5.67411 8.44 5.86078 8.2C6.04745 7.95333 6.30078 7.76667 6.62078 7.64C6.94078 7.50667 7.29745 7.44 7.69078 7.44C8.08411 7.44 8.44078 7.50667 8.76078 7.64C9.08078 7.76667 9.33411 7.95333 9.52078 8.2C9.70745 8.44 9.80078 8.72 9.80078 9.04ZM7.05078 9.04C7.05078 9.17333 7.11078 9.28 7.23078 9.36C7.35745 9.44 7.51078 9.48 7.69078 9.48C7.87078 9.48 8.02078 9.44 8.14078 9.36C8.26745 9.28 8.33078 9.17333 8.33078 9.04C8.33078 8.90667 8.26745 8.8 8.14078 8.72C8.02078 8.64 7.87078 8.6 7.69078 8.6C7.51078 8.6 7.35745 8.64 7.23078 8.72C7.11078 8.8 7.05078 8.90667 7.05078 9.04ZM10.0608 10.78C11.2941 10.78 12.2741 10.9133 13.0008 11.18C13.7274 11.4467 14.0908 11.8733 14.0908 12.46C14.0908 13.0467 13.7274 13.4733 13.0008 13.74C12.2741 14.0067 11.2941 14.14 10.0608 14.14C8.82745 14.14 7.84745 14.0067 7.12078 13.74C6.39411 13.4733 6.03078 13.0467 6.03078 12.46C6.03078 11.8733 6.39411 11.4467 7.12078 11.18C7.84745 10.9133 8.82745 10.78 10.0608 10.78ZM10.0608 12.88C10.7141 12.88 11.2508 12.8467 11.6708 12.78C12.0974 12.7067 12.3108 12.6 12.3108 12.46C12.3108 12.32 12.0974 12.2167 11.6708 12.15C11.2508 12.0767 10.7141 12.04 10.0608 12.04C9.40745 12.04 8.86745 12.0767 8.44078 12.15C8.02078 12.2167 7.81078 12.32 7.81078 12.46C7.81078 12.6 8.02078 12.7067 8.44078 12.78C8.86745 12.8467 9.40745 12.88 10.0608 12.88ZM19.4799 9.24C18.2999 9.24 17.3499 9.07667 16.6299 8.75C15.9166 8.42333 15.5599 7.94 15.5599 7.3C15.5599 6.66 15.9166 6.17667 16.6299 5.85C17.3499 5.52333 18.2999 5.36 19.4799 5.36C20.6599 5.36 21.6066 5.52333 22.3199 5.85C23.0399 6.17667 23.3999 6.66 23.3999 7.3C23.3999 7.94 23.0399 8.42333 22.3199 8.75C21.6066 9.07667 20.6599 9.24 19.4799 9.24ZM19.4799 6.66C18.8333 6.66 18.3166 6.71667 17.9299 6.83C17.5499 6.94333 17.3599 7.1 17.3599 7.3C17.3599 7.50667 17.5499 7.66667 17.9299 7.78C18.3099 7.88667 18.8266 7.94 19.4799 7.94C20.1333 7.94 20.6499 7.88667 21.0299 7.78C21.4099 7.66667 21.5999 7.50667 21.5999 7.3C21.5999 7.1 21.4066 6.94333 21.0199 6.83C20.6399 6.71667 20.1266 6.66 19.4799 6.66ZM23.7999 9.62V11.01H20.3299V12.17H18.6299V11.01H15.1599V9.62H23.7999ZM17.3799 12.64H23.3999V14.04H15.6599V11.51H17.3799V12.64ZM33.0591 14.04H31.3691V5.5H33.0591V14.04ZM27.7391 5.56C28.2657 5.56 28.7324 5.67667 29.1391 5.91C29.5524 6.13667 29.8757 6.46 30.1091 6.88C30.3424 7.3 30.4591 7.78333 30.4591 8.33C30.4591 8.87667 30.3424 9.36 30.1091 9.78C29.8757 10.2 29.5524 10.5267 29.1391 10.76C28.7324 10.9867 28.2657 11.1 27.7391 11.1C27.2124 11.1 26.7424 10.9867 26.3291 10.76C25.9157 10.5267 25.5924 10.2 25.3591 9.78C25.1257 9.36 25.0091 8.87667 25.0091 8.33C25.0091 7.78333 25.1257 7.3 25.3591 6.88C25.5924 6.46 25.9157 6.13667 26.3291 5.91C26.7424 5.67667 27.2124 5.56 27.7391 5.56ZM27.7391 7.07C27.4057 7.07 27.1391 7.19 26.9391 7.43C26.7391 7.66333 26.6391 7.96333 26.6391 8.33C26.6391 8.70333 26.7391 9.00667 26.9391 9.24C27.1391 9.47333 27.4057 9.59 27.7391 9.59C28.0724 9.59 28.3391 9.47333 28.5391 9.24C28.7391 9 28.8391 8.69667 28.8391 8.33C28.8391 7.96333 28.7391 7.66333 28.5391 7.43C28.3391 7.19 28.0724 7.07 27.7391 7.07ZM30.8791 13.28C30.6257 13.3933 30.2924 13.48 29.8791 13.54C29.4657 13.6067 29.0391 13.64 28.5991 13.64H24.7791V12.06H28.6691C29.0957 12.06 29.5057 12.0333 29.8991 11.98C30.2991 11.92 30.6257 11.8333 30.8791 11.72V13.28ZM45.8409 9.31V10.58H37.2009V9.31H40.6809V8.91H37.6409V5.5H39.1109V6.09H39.9609V5.5H41.3409V8.16H41.7009V5.5H43.0809V6.09H43.9309V5.5H45.4009V8.91H42.3609V9.31H45.8409ZM39.9609 7.78V7.18H39.1109V7.78H39.9609ZM43.0809 7.18V7.78H43.9309V7.18H43.0809ZM43.6909 10.91H45.3409V14.04H37.7009V10.91H39.3509V11.3H43.6909V10.91ZM43.6909 12.87V12.44H39.3509V12.87H43.6909ZM55.0801 14.04H53.3901V5.5H55.0801V14.04ZM52.0701 8.01C52.0701 9.15667 51.8667 10.1533 51.4601 11C51.0601 11.8467 50.4901 12.5 49.7501 12.96C49.0101 13.4133 48.1434 13.64 47.1501 13.64V12.04C48.1701 12.0333 48.9567 11.6733 49.5101 10.96C50.0634 10.2467 50.3401 9.26333 50.3401 8.01V7.24H47.1501V5.7H52.0701V8.01Z" fill="white"/>
</svg>
