<svg width="90" height="90" viewBox="0 0 90 90" fill="none" xmlns="http://www.w3.org/2000/svg">
<path d="M45.165 89.7151C68.361 89.7151 87.165 70.911 87.165 47.7151C87.165 24.5191 68.361 5.71509 45.165 5.71509C21.9691 5.71509 3.16504 24.5191 3.16504 47.7151C3.16504 70.911 21.9691 89.7151 45.165 89.7151Z" fill="#00479C" stroke="black" stroke-width="0.22" stroke-miterlimit="10"/>
<path d="M70.1552 22.7399L72.3302 20.5649C65.3852 13.6199 55.7852 9.31494 45.1802 9.31494V12.3899C54.9302 12.3899 63.7652 16.3499 70.1552 22.7399Z" fill="#E0E0E0"/>
<path d="M20.1901 22.7399L18.0151 20.5649C11.0701 27.5099 6.76514 37.1099 6.76514 47.7149H9.84014C9.84014 37.9649 13.8001 29.1299 20.1901 22.7399Z" fill="#E0E0E0"/>
<path d="M45.1651 12.3899V9.31494C34.5601 9.31494 24.9601 13.6199 18.0151 20.5649L20.1901 22.7399C26.5801 16.3499 35.4151 12.3899 45.1651 12.3899Z" fill="#F4F4F4"/>
<path d="M80.4901 47.7149H83.5651C83.5651 37.1099 79.2601 27.5099 72.3151 20.5649L70.1401 22.7399C76.5301 29.1299 80.4901 37.9649 80.4901 47.7149Z" fill="#F4F4F4"/>
<path d="M20.1901 72.7051L18.0151 74.8801C24.9601 81.8251 34.5601 86.1301 45.1651 86.1301V83.0551C35.4151 83.0551 26.5801 79.0951 20.1901 72.7051Z" fill="#E0E0E0"/>
<path d="M45.165 83.0399V86.1149C55.77 86.1149 65.37 81.8099 72.315 74.8649L70.14 72.6899C63.75 79.0799 54.915 83.0399 45.165 83.0399Z" fill="#F4F4F4"/>
<path d="M9.84014 47.7151H6.76514C6.76514 58.3201 11.0701 67.9201 18.0151 74.8651L20.1901 72.6901C13.8001 66.3001 9.84014 57.4651 9.84014 47.7151Z" fill="#F4F4F4"/>
<path d="M80.4901 47.7151C80.4901 57.4651 76.5301 66.3001 70.1401 72.6901L72.3151 74.8651C79.2601 67.9201 83.5651 58.3201 83.5651 47.7151H80.4901Z" fill="#E0E0E0"/>
<path d="M45.1649 12.3901C35.4149 12.3901 26.5799 16.3501 20.1899 22.7401L45.1649 47.7151V12.3901Z" fill="white"/>
<path d="M45.165 47.7151L70.155 22.7401C63.765 16.3501 54.93 12.3901 45.18 12.3901V47.7151H45.165Z" fill="#F4F4F4"/>
<path d="M45.1648 47.7147L20.1898 22.7397C13.7998 29.1297 9.83984 37.9647 9.83984 47.7147H45.1648Z" fill="#F4F4F4"/>
<path d="M45.165 47.7147H80.49C80.49 37.9647 76.53 29.1297 70.14 22.7397L45.165 47.7147Z" fill="white"/>
<path d="M45.165 47.7151V83.0401C54.915 83.0401 63.75 79.0801 70.14 72.6901L45.165 47.7151Z" fill="white"/>
<path d="M9.83984 47.7151C9.83984 57.4651 13.7998 66.3001 20.1898 72.6901L45.1648 47.7151H9.83984Z" fill="white"/>
<path d="M70.155 72.705C76.545 66.315 80.505 57.48 80.505 47.73H45.165L70.14 72.705H70.155Z" fill="#F4F4F4"/>
<path d="M20.1899 72.7051C26.5799 79.0951 35.4149 83.0551 45.1649 83.0551V47.7151L20.1899 72.7051Z" fill="#F4F4F4"/>
<path d="M45.165 54.4198C48.868 54.4198 51.87 51.4178 51.87 47.7148C51.87 44.0117 48.868 41.0098 45.165 41.0098C41.4619 41.0098 38.46 44.0117 38.46 47.7148C38.46 51.4178 41.4619 54.4198 45.165 54.4198Z" fill="#00479C" stroke="black" stroke-width="0.22" stroke-miterlimit="10"/>
<path d="M45.1647 52.1398C47.6086 52.1398 49.5897 50.1587 49.5897 47.7148C49.5897 45.2709 47.6086 43.2898 45.1647 43.2898C42.7209 43.2898 40.7397 45.2709 40.7397 47.7148C40.7397 50.1587 42.7209 52.1398 45.1647 52.1398Z" fill="white" stroke="black" stroke-width="0.22" stroke-miterlimit="10"/>
<path d="M43.4551 45.2998H45.4501C46.8001 45.2998 47.5951 46.0498 47.5951 47.2048C47.5951 48.3598 46.8001 49.1248 45.4501 49.1248H44.6101V50.5048H43.4551V45.2998ZM45.4051 48.0898C46.0501 48.0898 46.4401 47.7898 46.4401 47.2048C46.4401 46.6198 46.0501 46.3348 45.4051 46.3348H44.6251V48.0898H45.4051Z" fill="#F9C900" stroke="black" stroke-width="0.22" stroke-miterlimit="10"/>
<path d="M37.6647 25.2749C38.1897 26.5649 37.8597 27.4499 37.0647 27.7799C36.2697 28.1099 35.3847 27.7199 34.8597 26.4299C34.3197 25.1399 34.6647 24.2549 35.4597 23.9099C36.2547 23.5799 37.1397 23.9699 37.6647 25.2599V25.2749ZM35.6247 26.1149C35.9697 26.9549 36.3897 27.2099 36.7647 27.0599C37.1247 26.9099 37.2447 26.4149 36.8997 25.5899C36.5547 24.7499 36.1197 24.4799 35.7597 24.6299C35.3997 24.7799 35.2797 25.2749 35.6397 26.0999L35.6247 26.1149Z" fill="#00479C"/>
<path d="M24.9451 40.3201L24.6151 41.1301L21.6601 39.9001L21.3901 40.5451L20.6851 40.2451L21.2851 38.7751L24.9601 40.2901L24.9451 40.3201Z" fill="#00479C"/>
<path d="M25.1703 38.5799C25.4253 38.6849 25.5453 38.9549 25.4403 39.2099C25.3353 39.4649 25.0653 39.5849 24.7953 39.4799C24.5403 39.3749 24.4203 39.1049 24.5253 38.8349C24.6303 38.5799 24.9003 38.4749 25.1553 38.5799H25.1703Z" fill="#00479C"/>
<path d="M26.2053 37.2901L25.8753 38.1001L22.9203 36.8701L22.6503 37.5151L21.9453 37.2151L22.5453 35.7451L26.2203 37.2601L26.2053 37.2901Z" fill="#00479C"/>
<path d="M25.98 57.4199L26.325 58.2299L23.37 59.4599L23.64 60.1049L22.935 60.4049L22.335 58.9349L26.01 57.4199H25.98Z" fill="#00479C"/>
<path d="M24.915 56.0399C25.17 55.9349 25.44 56.0399 25.545 56.2949C25.65 56.5649 25.545 56.8199 25.275 56.9399C25.005 57.0599 24.75 56.9399 24.63 56.6699C24.525 56.4149 24.63 56.1449 24.9 56.0399H24.915Z" fill="#00479C"/>
<path d="M21.48 53.9699C21.87 53.8049 22.275 53.8649 23.205 54.2249L23.97 54.5249L23.385 53.0999L24.075 52.8149L25.17 55.4399L24.705 55.6349L22.965 54.9449C22.32 54.6899 22.05 54.6899 21.84 54.7649C21.57 54.8699 21.45 55.0949 21.6 55.4549C21.735 55.7849 22.08 55.8599 22.365 55.7399L22.695 56.5499C21.975 56.8499 21.21 56.5199 20.88 55.7549C20.535 54.9299 20.82 54.2399 21.495 53.9699H21.48Z" fill="#00479C"/>
<path d="M34.6352 69.6C34.8002 69.21 35.1152 68.97 36.0302 68.565L36.7802 68.235L35.3552 67.65L35.6402 66.96L38.2652 68.04L38.0702 68.505L36.3602 69.255C35.7302 69.525 35.5352 69.72 35.4452 69.93C35.3402 70.2 35.4152 70.44 35.7602 70.59C36.0902 70.725 36.3902 70.53 36.4952 70.26L37.3052 70.59C37.0052 71.31 36.2402 71.625 35.4602 71.31C34.6352 70.965 34.3502 70.275 34.6352 69.615V69.6Z" fill="#00479C"/>
<path d="M52.815 69.945C52.29 68.67 52.62 67.77 53.415 67.44C54.21 67.11 55.08 67.5 55.62 68.79C56.16 70.08 55.815 70.98 55.02 71.31C54.225 71.64 53.355 71.25 52.815 69.96V69.945ZM54.855 69.105C54.51 68.28 54.09 68.01 53.73 68.16C53.37 68.31 53.25 68.805 53.595 69.63C53.94 70.47 54.375 70.74 54.735 70.59C55.095 70.44 55.215 69.945 54.855 69.105Z" fill="#00479C"/>
<path d="M64.9349 56.4001L65.2649 55.5901L68.2199 56.8201L68.4899 56.1751L69.1949 56.4751L68.5949 57.9451L64.9199 56.4301L64.9349 56.4001Z" fill="#00479C"/>
<path d="M66.735 37.9799C65.445 38.5049 64.56 38.1749 64.23 37.3799C63.9 36.5849 64.29 35.7149 65.58 35.1749C66.87 34.6349 67.755 34.9799 68.1 35.7749C68.445 36.5699 68.04 37.4399 66.75 37.9799H66.735ZM65.895 35.9399C65.07 36.2849 64.8 36.7049 64.95 37.0799C65.1 37.4399 65.595 37.5599 66.42 37.1999C67.26 36.8549 67.53 36.4199 67.38 36.0599C67.23 35.6999 66.735 35.5799 65.895 35.9399Z" fill="#00479C"/>
<path d="M65.7302 39.5849C65.4752 39.6899 65.2052 39.5849 65.1002 39.3299C64.9952 39.0749 65.1002 38.8049 65.3702 38.6849C65.6252 38.5799 65.8952 38.6849 66.0152 38.9549C66.1202 39.2099 66.0152 39.4799 65.7452 39.5849H65.7302Z" fill="#00479C"/>
<path d="M65.9402 41.5351C65.6252 40.7551 65.7902 39.9601 66.4502 39.6901C66.9602 39.4801 67.4552 39.7651 67.6652 40.0651C67.6352 39.7501 67.8152 39.2851 68.2352 39.1051C68.8052 38.8651 69.4952 39.1951 69.8102 39.9451C70.1252 40.6951 69.8552 41.4001 69.2852 41.6401C68.8652 41.8201 68.4152 41.6251 68.2202 41.3701C68.2952 41.7301 68.1302 42.2701 67.6202 42.4801C66.9602 42.7501 66.2702 42.3151 65.9552 41.5351H65.9402ZM67.5602 40.8601C67.4102 40.5001 67.1102 40.3351 66.8252 40.4401C66.5552 40.5451 66.4652 40.8901 66.6152 41.2501C66.7652 41.6101 67.0652 41.7751 67.3352 41.6701C67.6052 41.5651 67.7102 41.2201 67.5602 40.8601ZM69.1352 40.2001C69.0152 39.9151 68.7602 39.7651 68.5352 39.8701C68.2802 39.9751 68.1902 40.2751 68.3102 40.5451C68.4302 40.8301 68.6852 40.9651 68.9402 40.8601C69.1802 40.7701 69.2702 40.4851 69.1502 40.2001H69.1352Z" fill="#00479C"/>
<path d="M53.7449 25.6501C53.2199 26.9251 52.3499 27.33 51.5399 27.0001C50.7449 26.6701 50.3999 25.7701 50.9249 24.4951C51.4649 23.2051 52.3349 22.8151 53.1299 23.1451C53.9249 23.4751 54.2699 24.3751 53.7299 25.6651L53.7449 25.6501ZM51.7049 24.8101C51.3599 25.6501 51.4799 26.1301 51.8399 26.2801C52.1999 26.4301 52.6199 26.1601 52.9649 25.3351C53.3099 24.4951 53.2049 24.0151 52.8449 23.8651C52.4849 23.7151 52.0499 23.9851 51.7049 24.8251V24.8101Z" fill="#00479C"/>
<path d="M54.1803 27.4801C54.0753 27.7351 53.8053 27.8551 53.5503 27.7501C53.2803 27.6451 53.1753 27.3751 53.2803 27.1051C53.3853 26.8501 53.6553 26.7301 53.9253 26.8351C54.1803 26.9401 54.2853 27.2101 54.1803 27.4651V27.4801Z" fill="#00479C"/>
<path d="M56.0399 27.285C56.0399 27.285 55.9649 27.285 55.9349 27.255C55.2149 26.955 54.8399 26.22 55.1399 25.47C55.4699 24.69 56.2949 24.45 57.0599 24.765C57.8249 25.08 58.2449 25.845 57.9149 26.625C57.7649 26.985 57.5399 27.21 57.1799 27.465L55.6199 28.575L54.6899 28.185L56.0399 27.285ZM57.1349 26.295C57.2699 25.965 57.1349 25.62 56.7899 25.47C56.4299 25.32 56.0849 25.47 55.9499 25.815C55.8149 26.145 55.9499 26.49 56.3099 26.64C56.6699 26.79 57.0149 26.64 57.1499 26.295H57.1349Z" fill="#00479C"/>
<path d="M40.9648 6.06004C40.9648 3.76504 42.8398 1.66504 45.1648 1.66504C47.4898 1.66504 49.3648 3.76504 49.3648 6.06004C49.3648 8.35504 45.1648 13.425 45.1648 13.425C45.1648 13.425 40.9648 8.35504 40.9648 6.06004Z" fill="#00479C" stroke="black" stroke-width="0.22" stroke-miterlimit="10"/>
<path d="M45.1646 8.38529C46.051 8.38529 46.7696 7.66671 46.7696 6.78029C46.7696 5.89388 46.051 5.17529 45.1646 5.17529C44.2782 5.17529 43.5596 5.89388 43.5596 6.78029C43.5596 7.66671 44.2782 8.38529 45.1646 8.38529Z" fill="white" stroke="black" stroke-width="0.22" stroke-miterlimit="10"/>
</svg>
