<svg width="164" height="171" viewBox="0 0 164 171" fill="none" xmlns="http://www.w3.org/2000/svg">
<path d="M101.444 155.39H16.5557L36.2351 105.503H81.7651L101.444 155.39Z" fill="#00479C" stroke="black" stroke-width="2" stroke-miterlimit="10"/>
<path d="M58.7506 132.292C64.4694 132.292 69.1152 136.918 69.1152 142.614V156.718C69.1152 158.439 67.7116 159.843 65.9774 159.843H51.5238C49.7954 159.843 48.386 158.445 48.386 156.718V142.614C48.386 136.918 53.0318 132.292 58.7506 132.292Z" fill="white" stroke="black" stroke-width="2" stroke-miterlimit="10"/>
<path d="M18.661 153.651H99.339C104.675 153.651 109.008 157.966 109.008 163.28V163.869H8.99243V163.28C8.99243 157.966 13.325 153.651 18.661 153.651Z" fill="#00479C" stroke="black" stroke-width="2" stroke-miterlimit="10"/>
<path d="M58.9537 142.729C59.9861 141.949 60.5429 141.424 60.5429 140.592C60.5429 139.76 59.9165 139.183 58.8145 139.183C57.6429 139.183 57.0165 140.003 57.0165 140.887H53.9773C53.9773 138.38 55.9667 136.503 58.7971 136.503C61.8189 136.503 63.5299 138.224 63.5299 140.592C63.5299 141.88 62.9035 142.908 61.7667 143.775C60.4907 144.768 60.0905 145.392 60.0905 146.368H57.2079C57.2079 144.647 57.6777 143.688 58.9537 142.735V142.729ZM56.8947 149.475C56.8947 148.413 57.6777 147.633 58.7449 147.633C59.8121 147.633 60.5951 148.413 60.5951 149.475C60.5951 150.538 59.8121 151.301 58.7449 151.301C57.6777 151.301 56.8947 150.532 56.8947 149.475Z" fill="#00479C"/>
<path d="M59 127.539C91.0325 127.539 117 101.679 117 69.7795C117 37.8801 91.0325 12.0205 59 12.0205C26.9675 12.0205 1 37.8801 1 69.7795C1 101.679 26.9675 127.539 59 127.539Z" fill="#00479C" stroke="black" stroke-width="2" stroke-miterlimit="10"/>
<path opacity="0.36" d="M58.9999 120.422C87.086 120.422 109.854 97.7487 109.854 69.7793C109.854 41.8099 87.086 19.1362 58.9999 19.1362C30.9138 19.1362 8.14551 41.8099 8.14551 69.7793C8.14551 97.7487 30.9138 120.422 58.9999 120.422Z" fill="white" stroke="black" stroke-width="2" stroke-miterlimit="10"/>
<path d="M26.23 96.4524C30.8523 96.4524 34.5994 92.7209 34.5994 88.1178C34.5994 83.5147 30.8523 79.7832 26.23 79.7832C21.6077 79.7832 17.8606 83.5147 17.8606 88.1178C17.8606 92.7209 21.6077 96.4524 26.23 96.4524Z" fill="#F9B96B" stroke="black" stroke-width="2" stroke-miterlimit="10"/>
<path d="M36.8555 107.352C41.4778 107.352 45.2249 103.62 45.2249 99.0172C45.2249 94.4142 41.4778 90.6826 36.8555 90.6826C32.2332 90.6826 28.4861 94.4142 28.4861 99.0172C28.4861 103.62 32.2332 107.352 36.8555 107.352Z" fill="#FC567E" stroke="black" stroke-width="2" stroke-miterlimit="10"/>
<path d="M97.0654 72.9966C101.688 72.9966 105.435 69.2651 105.435 64.662C105.435 60.0589 101.688 56.3274 97.0654 56.3274C92.4432 56.3274 88.696 60.0589 88.696 64.662C88.696 69.2651 92.4432 72.9966 97.0654 72.9966Z" fill="#D2FF45" stroke="black" stroke-width="2" stroke-miterlimit="10"/>
<path d="M51.0249 93.6741C55.6472 93.6741 59.3943 89.9426 59.3943 85.3395C59.3943 80.7364 55.6472 77.0049 51.0249 77.0049C46.4026 77.0049 42.6555 80.7364 42.6555 85.3395C42.6555 89.9426 46.4026 93.6741 51.0249 93.6741Z" fill="#893030" stroke="black" stroke-width="2" stroke-miterlimit="10"/>
<path d="M88.3711 95.9212C92.9934 95.9212 96.7405 92.1897 96.7405 87.5866C96.7405 82.9835 92.9934 79.252 88.3711 79.252C83.7488 79.252 80.0017 82.9835 80.0017 87.5866C80.0017 92.1897 83.7488 95.9212 88.3711 95.9212Z" fill="#50D9EF" stroke="black" stroke-width="2" stroke-miterlimit="10"/>
<path d="M34.9243 70.4319C39.5466 70.4319 43.2937 66.7004 43.2937 62.0973C43.2937 57.4942 39.5466 53.7627 34.9243 53.7627C30.302 53.7627 26.5549 57.4942 26.5549 62.0973C26.5549 66.7004 30.302 70.4319 34.9243 70.4319Z" fill="#FCA1FF" stroke="black" stroke-width="2" stroke-miterlimit="10"/>
<path d="M69.3762 114.196C73.9985 114.196 77.7456 110.465 77.7456 105.861C77.7456 101.258 73.9985 97.5269 69.3762 97.5269C64.7539 97.5269 61.0068 101.258 61.0068 105.861C61.0068 110.465 64.7539 114.196 69.3762 114.196Z" fill="#486BFF" stroke="black" stroke-width="2" stroke-miterlimit="10"/>
<path d="M71.1453 75.723C75.7676 75.723 79.5147 71.9914 79.5147 67.3883C79.5147 62.7852 75.7676 59.0537 71.1453 59.0537C66.523 59.0537 62.7759 62.7852 62.7759 67.3883C62.7759 71.9914 66.523 75.723 71.1453 75.723Z" fill="#FFFB76" stroke="black" stroke-width="2" stroke-miterlimit="10"/>
<path d="M83.3775 108.743C87.9997 108.743 91.7469 105.012 91.7469 100.409C91.7469 95.8058 87.9997 92.0742 83.3775 92.0742C78.7552 92.0742 75.0081 95.8058 75.0081 100.409C75.0081 105.012 78.7552 108.743 83.3775 108.743Z" fill="#BC6BFC" stroke="black" stroke-width="2" stroke-miterlimit="10"/>
<path opacity="0.25" d="M58.9999 120.422C87.086 120.422 109.854 97.7487 109.854 69.7793C109.854 41.8099 87.086 19.1362 58.9999 19.1362C30.9138 19.1362 8.14551 41.8099 8.14551 69.7793C8.14551 97.7487 30.9138 120.422 58.9999 120.422Z" fill="white" stroke="black" stroke-width="2" stroke-miterlimit="10"/>
<g opacity="0.58">
<path opacity="0.25" d="M99.2984 38.8843C99.223 63.5763 88.9338 95.7134 44.384 118.297C49.0124 119.678 53.9192 120.423 59 120.423C87.0894 120.423 109.854 97.7465 109.854 69.7796C109.854 58.1469 105.916 47.4326 99.2926 38.8843H99.2984Z" fill="black"/>
</g>
<path d="M34.9243 11.2581H83.0817C87.3331 11.2581 90.7899 14.6947 90.7899 18.9342V21.4756H27.2161V18.9342C27.2161 14.7005 30.6671 11.2581 34.9243 11.2581Z" fill="#00479C" stroke="black" stroke-width="2" stroke-miterlimit="10"/>
<path d="M45.631 1H72.369C75.6924 1 78.3894 3.68579 78.3894 6.99538V11.2176H39.6106V6.99538C39.6106 3.68579 42.3076 1 45.631 1Z" fill="#00479C" stroke="black" stroke-width="2" stroke-miterlimit="10"/>
<path d="M162.796 115.19L159.748 117.761L156.699 115.19L153.65 117.761L150.602 115.19L147.553 117.761L144.505 115.19L141.45 117.761L138.402 115.19L135.353 117.761L132.304 115.19L129.256 117.761L126.207 115.19L123.159 117.761L120.11 115.19L117.061 117.761L114.013 115.19L110.964 117.761L107.916 115.19L104.867 117.761L101.813 115.19L98.764 117.761L95.7154 115.19L92.6668 117.761L89.6182 115.19L86.5696 117.761L83.521 115.19L80.4725 117.761L77.4239 115.19L74.3753 117.761L71.3267 115.19L68.2781 117.761L65.0088 115.006V167.493L68.2781 169.854L71.3267 167.308L74.3753 169.854L77.4239 167.308L80.4725 169.854L83.521 167.308L86.5696 169.854L89.6182 167.308L92.6668 169.854L95.7154 167.308L98.764 169.854L101.813 167.308L104.867 169.854L107.916 167.308L110.964 169.854L114.013 167.308L117.061 169.854L120.11 167.308L123.159 169.854L126.207 167.308L129.256 169.854L132.304 167.308L135.353 169.854L138.402 167.308L141.45 169.854L144.505 167.308L147.553 169.854L150.602 167.308L153.65 169.854L156.699 167.308L159.748 169.854L162.796 167.308V115.19Z" fill="white"/>
<path d="M104.861 170.451C104.724 170.451 104.587 170.403 104.479 170.313L101.813 168.089L99.1458 170.313C98.9251 170.498 98.6029 170.498 98.3822 170.313L95.7154 168.089L93.0486 170.313C92.8279 170.498 92.5057 170.498 92.285 170.313L89.6182 168.089L86.9515 170.313C86.7307 170.498 86.4086 170.498 86.1878 170.313L83.5211 168.089L80.8543 170.313C80.6336 170.498 80.3114 170.498 80.0907 170.313L77.4239 168.089L74.7571 170.313C74.5364 170.498 74.2142 170.498 73.9935 170.313L71.3267 168.089L68.66 170.313C68.4511 170.486 68.1469 170.498 67.9261 170.337L64.6568 167.982C64.5017 167.869 64.4062 167.69 64.4062 167.499V115.006C64.4062 114.773 64.5435 114.564 64.7523 114.463C64.9611 114.368 65.2117 114.397 65.3906 114.547L68.2722 116.979L70.9389 114.731C71.1597 114.547 71.4878 114.547 71.7085 114.731L74.3753 116.979L77.0421 114.731C77.2628 114.547 77.5909 114.547 77.8117 114.731L80.4784 116.979L83.1452 114.731C83.3659 114.547 83.6941 114.547 83.9148 114.731L86.5816 116.979L89.2483 114.731C89.4691 114.547 89.7972 114.547 90.0179 114.731L92.6847 116.979L95.3515 114.731C95.5722 114.547 95.9003 114.547 96.1211 114.731L98.7878 116.979L101.455 114.731C101.675 114.547 102.003 114.547 102.224 114.731L104.891 116.979L107.558 114.731C107.778 114.547 108.107 114.547 108.327 114.731L110.994 116.979L113.661 114.731C113.882 114.547 114.21 114.547 114.43 114.731L117.097 116.979L119.764 114.731C119.985 114.547 120.313 114.547 120.534 114.731L123.2 116.979L125.867 114.731C126.088 114.547 126.416 114.547 126.637 114.731L129.304 116.979L131.97 114.731C132.191 114.547 132.519 114.547 132.74 114.731L135.407 116.979L138.073 114.731C138.294 114.547 138.622 114.547 138.843 114.731L141.51 116.979L144.177 114.731C144.397 114.547 144.725 114.547 144.946 114.731L147.613 116.979L150.28 114.731C150.5 114.547 150.829 114.547 151.049 114.731L153.716 116.979L156.383 114.731C156.604 114.547 156.932 114.547 157.152 114.731L159.819 116.979L162.486 114.731C162.665 114.582 162.91 114.547 163.124 114.648C163.333 114.743 163.47 114.958 163.47 115.191V167.308C163.47 167.487 163.393 167.654 163.256 167.767L160.207 170.308C159.986 170.492 159.664 170.492 159.443 170.308L156.777 168.083L154.11 170.308C153.889 170.492 153.567 170.492 153.346 170.308L150.679 168.083L148.013 170.308C147.792 170.492 147.47 170.492 147.249 170.308L144.582 168.083L141.915 170.308C141.695 170.492 141.373 170.492 141.152 170.308L138.485 168.083L135.818 170.308C135.598 170.492 135.275 170.492 135.055 170.308L132.388 168.083L129.721 170.308C129.5 170.492 129.178 170.492 128.958 170.308L126.291 168.083L123.624 170.308C123.403 170.492 123.081 170.492 122.86 170.308L120.194 168.083L117.527 170.308C117.306 170.492 116.984 170.492 116.763 170.308L114.096 168.083L111.43 170.308C111.209 170.492 110.887 170.492 110.666 170.308L107.999 168.083L105.332 170.308C105.219 170.403 105.088 170.445 104.951 170.445L104.861 170.451ZM65.5994 167.195L68.2423 169.103L70.9389 166.855C71.1597 166.67 71.4818 166.67 71.7026 166.855L74.3693 169.079L77.0361 166.855C77.2568 166.67 77.579 166.67 77.7997 166.855L80.4665 169.079L83.1333 166.855C83.354 166.67 83.6762 166.67 83.8969 166.855L86.5637 169.079L89.2304 166.855C89.4512 166.67 89.7733 166.67 89.9941 166.855L92.6609 169.079L95.3276 166.855C95.5484 166.67 95.8705 166.67 96.0913 166.855L98.758 169.079L101.425 166.855C101.646 166.67 101.968 166.67 102.188 166.855L104.855 169.079L107.522 166.855C107.743 166.67 108.065 166.67 108.286 166.855L110.952 169.079L113.619 166.855C113.84 166.67 114.162 166.67 114.383 166.855L117.05 169.079L119.716 166.855C119.937 166.67 120.259 166.67 120.48 166.855L123.147 169.079L125.813 166.855C126.034 166.67 126.356 166.67 126.577 166.855L129.244 169.079L131.911 166.855C132.131 166.67 132.454 166.67 132.674 166.855L135.341 169.079L138.008 166.855C138.229 166.67 138.551 166.67 138.771 166.855L141.438 169.079L144.105 166.855C144.326 166.67 144.648 166.67 144.869 166.855L147.535 169.079L150.202 166.855C150.423 166.67 150.745 166.67 150.966 166.855L153.633 169.079L156.299 166.855C156.52 166.67 156.842 166.67 157.063 166.855L159.73 169.079L162.182 167.034V116.479L160.112 118.22C159.891 118.405 159.563 118.405 159.342 118.22L156.675 115.972L154.008 118.22C153.788 118.405 153.46 118.405 153.239 118.22L150.572 115.972L147.905 118.22C147.685 118.405 147.356 118.405 147.136 118.22L144.469 115.972L141.802 118.22C141.581 118.405 141.253 118.405 141.033 118.22L138.366 115.972L135.699 118.22C135.478 118.405 135.15 118.405 134.929 118.22L132.263 115.972L129.596 118.22C129.375 118.405 129.047 118.405 128.826 118.22L126.159 115.972L123.493 118.22C123.272 118.405 122.944 118.405 122.723 118.22L120.056 115.972L117.39 118.22C117.169 118.405 116.841 118.405 116.62 118.22L113.953 115.972L111.286 118.22C111.066 118.405 110.738 118.405 110.517 118.22L107.85 115.972L105.183 118.22C104.963 118.405 104.634 118.405 104.414 118.22L101.747 115.972L99.0802 118.22C98.8594 118.405 98.5313 118.405 98.3106 118.22L95.6438 115.972L92.977 118.22C92.7563 118.405 92.4282 118.405 92.2074 118.22L89.5407 115.972L86.8739 118.22C86.6532 118.405 86.325 118.405 86.1043 118.22L83.4375 115.972L80.7708 118.22C80.55 118.405 80.2219 118.405 80.0012 118.22L77.3344 115.972L74.6676 118.22C74.4469 118.405 74.1188 118.405 73.898 118.22L71.2313 115.972L68.5645 118.22C68.3438 118.405 68.0156 118.405 67.7949 118.22L65.5099 116.288V167.189L65.5994 167.195Z" fill="black"/>
<path d="M88.3534 138.077H82.5904V141.285H79.685V138.077H73.9219V135.471H88.3534V138.077ZM87.5182 134.285H74.7571V126.854H87.5182V134.285ZM84.7262 129.442H77.5432V131.714H84.7262V129.442Z" fill="#00479C"/>
<path d="M98.4956 130.981C98.4956 133.569 96.5925 135.256 93.8004 135.256C91.0084 135.256 89.1052 133.569 89.1052 130.981C89.1052 128.393 91.0084 126.705 93.8004 126.705C96.5925 126.705 98.4956 128.411 98.4956 130.981ZM93.2336 138.411H103.155V140.951H90.3581V135.96H93.2336V138.417V138.411ZM91.9152 130.981C91.9152 132.215 92.7146 132.901 93.8004 132.901C94.8862 132.901 95.6856 132.215 95.6856 130.981C95.6856 129.747 94.8862 129.061 93.8004 129.061C92.7146 129.061 91.9152 129.747 91.9152 130.981ZM102.958 137.242H100.136V126.688H102.958V137.242Z" fill="#00479C"/>
<path d="M104.79 127.027H112.855V130.885C112.855 136.682 109.729 140.283 104.79 140.283V137.612C108.214 137.576 109.986 135.06 109.986 130.885V129.597H104.79V127.027ZM119.454 134.642H117.783V140.951H114.961V126.693H117.783V131.905H119.454V134.642Z" fill="#00479C"/>
<path d="M134.058 140.45H119.627V137.815H134.058V140.45ZM133.271 129.645H123.296V133.235H133.438V135.841H120.408V127.027H133.271V129.651V129.645Z" fill="#00479C"/>
<path d="M77.9488 143.67V156.151H85.7165V159.222H74.4707V143.67H77.9429H77.9488Z" fill="#00479C"/>
<path d="M97.6542 153.629C97.6542 157.028 95.1723 159.484 91.7181 159.484C88.2638 159.484 85.782 157.022 85.782 153.629C85.782 150.236 88.2638 147.773 91.7181 147.773C95.1723 147.773 97.6542 150.236 97.6542 153.629ZM89.0632 153.629C89.0632 155.346 90.1132 156.586 91.7181 156.586C93.3229 156.586 94.3729 155.346 94.3729 153.629C94.3729 151.911 93.3229 150.671 91.7181 150.671C90.1132 150.671 89.0632 151.911 89.0632 153.629Z" fill="#00479C"/>
<path d="M105.291 150.957H103.077V159.222H99.6767V150.957H97.4634V148.035H99.6767V144.714H103.077V148.035H105.291V150.957Z" fill="#00479C"/>
<path d="M113.1 150.957H110.887V159.222H107.486V150.957H105.273V148.035H107.486V144.714H110.887V148.035H113.1V150.957Z" fill="#00479C"/>
<path d="M124.781 153.629C124.781 157.028 122.3 159.484 118.845 159.484C115.391 159.484 112.909 157.022 112.909 153.629C112.909 150.236 115.391 147.773 118.845 147.773C122.3 147.773 124.781 150.236 124.781 153.629ZM116.19 153.629C116.19 155.346 117.24 156.586 118.845 156.586C120.45 156.586 121.5 155.346 121.5 153.629C121.5 151.911 120.45 150.671 118.845 150.671C117.24 150.671 116.19 151.911 116.19 153.629Z" fill="#00479C"/>
<path d="M133.181 151.846C133.724 152.418 138.312 157.415 138.711 157.946L138.938 158.25L139.165 157.94C139.552 157.403 142.643 153.319 143.705 151.983C145.268 150.033 146.831 148.083 148.436 146.169C150.035 144.249 151.693 142.382 153.381 140.54C155.082 138.709 156.806 136.902 158.59 135.155L158.357 134.911C157.14 135.441 155.959 136.044 154.867 136.741C153.757 137.427 152.695 138.167 151.675 138.948C149.635 140.516 147.732 142.239 145.984 144.088C144.23 145.936 142.595 147.886 141.08 149.926L139.97 151.476C139.612 152.007 139.266 152.532 138.914 153.068C138.705 153.384 138.508 153.706 138.312 154.034C137.846 153.671 134.953 150.91 134.464 150.576C133.736 150.099 132.99 149.657 132.202 149.276C131.421 148.894 130.61 148.572 129.745 148.357L129.56 148.644C130.21 149.097 130.836 149.622 131.433 150.158C132.029 150.695 132.608 151.261 133.163 151.846H133.181Z" fill="#00479C"/>
</svg>
