<svg width="236" height="236" viewBox="0 0 236 236" fill="none" xmlns="http://www.w3.org/2000/svg">
<path d="M194.758 41.2417L201.438 34.5616C180.087 13.2103 150.584 0 118 0V9.44702C147.977 9.44702 175.116 21.5991 194.758 41.2417Z" fill="#E0E0E0"/>
<path d="M41.2417 41.2417L34.5616 34.5616C13.2103 55.9181 0 85.4155 0 118H9.44702C9.44702 88.0225 21.5991 60.8842 41.2417 41.2417Z" fill="#E0E0E0"/>
<path d="M118 9.44702V0C85.4159 0 55.9185 13.2052 34.562 34.5616L41.242 41.2417C60.8846 21.5991 88.0229 9.44702 118 9.44702Z" fill="#F4F4F4"/>
<path d="M226.553 118H236C236 85.4155 222.795 55.9181 201.438 34.5616L194.758 41.2417C214.401 60.8842 226.553 88.0225 226.553 118Z" fill="#F4F4F4"/>
<path d="M41.242 194.758L34.562 201.438C55.9133 222.79 85.4159 236 118 236V226.553C88.0229 226.553 60.8846 214.401 41.242 194.758Z" fill="#E0E0E0"/>
<path d="M118 226.553V236C150.584 236 180.082 222.795 201.438 201.438L194.758 194.758C175.116 214.401 147.977 226.553 118 226.553Z" fill="#F4F4F4"/>
<path d="M9.44702 118H0C0 150.584 13.2052 180.082 34.5616 201.438L41.2417 194.758C21.5991 175.116 9.44702 147.977 9.44702 118Z" fill="#F4F4F4"/>
<path d="M226.553 118C226.553 147.977 214.401 175.116 194.758 194.758L201.438 201.438C222.789 180.087 236 150.584 236 118H226.553Z" fill="#E0E0E0"/>
<path d="M118 9.44702C88.022 9.44702 60.8838 21.5991 41.2412 41.2417L118 118V9.44702Z" fill="white"/>
<path d="M118 118L194.758 41.2417C175.116 21.5991 147.977 9.44702 118 9.44702V118Z" fill="#F4F4F4"/>
<path d="M118.001 118L41.2422 41.2416C21.5996 60.8842 9.44751 88.0224 9.44751 118H118.001Z" fill="#F4F4F4"/>
<path d="M118 118H226.553C226.553 88.0224 214.401 60.8842 194.758 41.2416L118 118Z" fill="white"/>
<path d="M118 118V226.553C147.977 226.553 175.116 214.401 194.758 194.758L118 118Z" fill="white"/>
<path d="M9.44751 118C9.44751 147.977 21.5996 175.116 41.2422 194.758L118.001 118H9.44751Z" fill="white"/>
<path d="M194.758 194.758C214.401 175.116 226.553 147.977 226.553 118H118L194.758 194.758Z" fill="#F4F4F4"/>
<path d="M41.2412 194.758C60.8838 214.401 88.022 226.553 118 226.553V118L41.2412 194.758Z" fill="#F4F4F4"/>
<path d="M118 138.613C129.384 138.613 138.613 129.384 138.613 118C138.613 106.616 129.384 97.387 118 97.387C106.616 97.387 97.3867 106.616 97.3867 118C97.3867 129.384 106.616 138.613 118 138.613Z" fill="#00479C" stroke="black" stroke-width="2" stroke-miterlimit="10"/>
<path d="M118 131.592C125.507 131.592 131.592 125.507 131.592 118C131.592 110.493 125.507 104.408 118 104.408C110.493 104.408 104.408 110.493 104.408 118C104.408 125.507 110.493 131.592 118 131.592Z" fill="white" stroke="black" stroke-width="2" stroke-miterlimit="10"/>
<path d="M112.75 110.571H118.883C123.039 110.571 125.47 112.884 125.47 116.41C125.47 119.936 123.039 122.29 118.883 122.29H116.317V126.544H112.75V110.571ZM118.728 119.136C120.705 119.136 121.903 118.196 121.903 116.41C121.903 114.624 120.705 113.726 118.728 113.726H116.317V119.136H118.728Z" fill="#F9C900"/>
<path d="M94.9602 49.0161C96.5915 52.9601 95.559 55.7064 93.0966 56.7234C90.6342 57.7456 87.9601 56.5324 86.3288 52.5884C84.6924 48.6289 85.7249 45.8877 88.1873 44.8656C90.6497 43.8435 93.3238 45.0566 94.9602 49.0109V49.0161ZM88.7087 51.6076C89.7669 54.1681 91.0782 54.9837 92.1881 54.5243C93.2928 54.0648 93.6438 52.5574 92.5856 50.0021C91.5221 47.4313 90.2057 46.6105 89.101 47.0699C87.9963 47.5293 87.6452 49.0367 88.7138 51.6076H88.7087Z" fill="#00479C"/>
<path d="M55.8407 95.2701L54.8031 97.7738L45.7123 94.0105L44.8863 96.0032L42.7026 95.0998L44.5662 90.6034L55.8407 95.2753V95.2701Z" fill="#00479C"/>
<path d="M56.5535 89.9582C57.3433 90.2834 57.6943 91.1145 57.3691 91.8992C57.0387 92.6993 56.2024 93.0349 55.4126 92.7097C54.6228 92.3844 54.2717 91.5533 54.6021 90.7532C54.9273 89.9633 55.7636 89.6278 56.5535 89.9582Z" fill="#00479C"/>
<path d="M59.6972 85.9626L58.6595 88.4663L49.5687 84.703L48.7427 86.6957L46.5591 85.7923L48.4227 81.2959L59.6972 85.9678V85.9626Z" fill="#00479C"/>
<path d="M59.0572 147.802L60.0948 150.306L51.004 154.069L51.83 156.061L49.6463 156.965L47.7827 152.469L59.0572 147.797V147.802Z" fill="#00479C"/>
<path d="M55.8002 143.543C56.5901 143.218 57.4264 143.553 57.7516 144.338C58.082 145.138 57.731 145.969 56.9411 146.294C56.1513 146.62 55.315 146.284 54.9846 145.484C54.6594 144.694 55.0104 143.868 55.8002 143.543Z" fill="#00479C"/>
<path d="M45.2536 137.214C46.4306 136.729 47.6747 136.878 50.5398 138.004L52.8835 138.928L51.0663 134.54L53.1984 133.657L56.5384 141.721L55.0981 142.314L49.7654 140.198C47.8089 139.423 46.9417 139.408 46.3067 139.671C45.4756 140.017 45.1142 140.698 45.5633 141.793C45.9866 142.815 47.0449 143.027 47.907 142.671L48.9343 145.148C46.7197 146.067 44.3657 145.081 43.3797 142.701C42.3317 140.172 43.2041 138.055 45.2536 137.209V137.214Z" fill="#00479C"/>
<path d="M85.6378 185.244C86.1231 184.067 87.1091 183.293 89.938 182.064L92.2507 181.063L87.8628 179.246L88.7455 177.114L96.809 180.454L96.2154 181.894L90.9447 184.171C89.0088 185.007 88.3893 185.606 88.126 186.246C87.7802 187.077 88.0073 187.82 89.1017 188.269C90.1239 188.693 91.0221 188.094 91.3783 187.237L93.8562 188.264C92.9373 190.479 90.5781 191.444 88.1983 190.458C85.6688 189.41 84.7912 187.299 85.6378 185.249V185.244Z" fill="#00479C"/>
<path d="M141.535 186.302C139.904 182.358 140.936 179.612 143.399 178.595C145.861 177.573 148.535 178.786 150.167 182.73C151.803 186.684 150.771 189.431 148.308 190.453C145.846 191.475 143.172 190.262 141.535 186.308V186.302ZM147.787 183.711C146.728 181.15 145.417 180.335 144.307 180.789C143.197 181.243 142.852 182.756 143.91 185.311C144.973 187.882 146.285 188.703 147.394 188.243C148.499 187.784 148.85 186.277 147.782 183.706L147.787 183.711Z" fill="#00479C"/>
<path d="M178.724 144.699L179.762 142.196L188.852 145.959L189.678 143.966L191.862 144.87L189.998 149.366L178.724 144.694V144.699Z" fill="#00479C"/>
<path d="M184.273 88.0585C180.329 89.6898 177.583 88.6573 176.566 86.1949C175.544 83.7325 176.757 81.0584 180.701 79.4271C184.66 77.7907 187.401 78.8231 188.424 81.2855C189.446 83.748 188.233 86.422 184.278 88.0585H184.273ZM181.682 81.8069C179.121 82.8652 178.305 84.1764 178.765 85.2863C179.224 86.3911 180.732 86.7421 183.287 85.6838C185.863 84.6204 186.679 83.304 186.219 82.1993C185.76 81.0945 184.258 80.7435 181.682 81.8121V81.8069Z" fill="#00479C"/>
<path d="M181.197 92.9938C180.407 93.319 179.571 92.9835 179.245 92.1988C178.915 91.3987 179.266 90.5675 180.056 90.2423C180.846 89.9171 181.682 90.2526 182.012 91.0528C182.338 91.8426 181.987 92.6686 181.197 92.9938Z" fill="#00479C"/>
<path d="M181.862 98.9871C180.871 96.5918 181.387 94.1603 183.431 93.3137C184.996 92.6684 186.524 93.5408 187.143 94.4494C187.045 93.4686 187.587 92.0438 188.878 91.5121C190.648 90.779 192.765 91.7805 193.715 94.0777C194.67 96.3904 193.839 98.5638 192.094 99.2865C190.808 99.8182 189.42 99.2091 188.8 98.4605C189.012 99.5549 188.542 101.243 186.978 101.888C184.928 102.735 182.843 101.377 181.852 98.9871H181.862ZM186.828 96.9273C186.379 95.8484 185.434 95.3167 184.588 95.6677C183.772 96.0084 183.478 97.0202 183.937 98.125C184.397 99.2297 185.321 99.7408 186.136 99.4001C186.978 99.049 187.277 98.0062 186.828 96.9273ZM191.67 94.9243C191.309 94.0519 190.54 93.608 189.822 93.9074C189.033 94.2326 188.759 95.1412 189.11 95.9826C189.471 96.855 190.266 97.2887 191.025 96.9738C191.743 96.6744 192.042 95.8226 191.665 94.9243H191.67Z" fill="#00479C"/>
<path d="M144.358 50.1829C142.727 54.1269 140.053 55.3348 137.59 54.3179C135.128 53.2957 134.096 50.5494 135.727 46.6105C137.363 42.6562 140.037 41.4431 142.5 42.4652C144.962 43.4873 145.995 46.2337 144.358 50.188V50.1829ZM138.107 47.5914C137.048 50.1519 137.394 51.6593 138.504 52.1136C139.609 52.573 140.92 51.7522 141.984 49.1969C143.047 46.626 142.701 45.1186 141.596 44.6592C140.492 44.1997 139.18 45.0205 138.112 47.5914H138.107Z" fill="#00479C"/>
<path d="M145.669 55.851C145.344 56.6408 144.513 56.9918 143.728 56.6666C142.928 56.3362 142.593 55.4999 142.918 54.7101C143.243 53.9202 144.074 53.5692 144.874 53.8996C145.664 54.2248 146 55.0611 145.669 55.851Z" fill="#00479C"/>
<path d="M151.415 55.247C151.332 55.247 151.198 55.2212 151.074 55.1696C148.875 54.2559 147.698 51.9741 148.643 49.6872C149.639 47.2816 152.205 46.5279 154.559 47.5036C156.913 48.4793 158.198 50.8075 157.202 53.2183C156.748 54.3127 156.04 55.0044 154.941 55.7839L150.13 59.1859L147.28 58.0037L151.42 55.247H151.415ZM154.755 52.191C155.173 51.1791 154.796 50.1002 153.676 49.6356C152.556 49.171 151.523 49.6666 151.105 50.6784C150.687 51.6902 151.064 52.7691 152.184 53.2337C153.304 53.6984 154.337 53.2028 154.755 52.191Z" fill="#00479C"/>
</svg>
